<svg width="800" height="400" viewBox="0 0 800 400" fill="none" xmlns="http://www.w3.org/2000/svg"><mask id="a" style="mask-type:alpha" maskUnits="userSpaceOnUse" x="0" y="0" width="800" height="400"><path fill="#D9D9D9" d="M0 0h800v400H0z"/></mask><g mask="url(#a)"><path d="M362.977 265.385c-.883-.441-2.316-.441-3.2 0l-40.042 20.024-.003 35.213-83.986 41.995c-.883.442-.884 1.159 0 1.601.884.441 2.317.441 3.201 0l85.31-42.658.005-35.214 38.715-19.36c.884-.442.884-1.159 0-1.601Z" fill="url(#b)"/><path d="M296.093 299.964c-.001-.625-1.013-1.132-2.263-1.132s-2.264.508-2.264 1.133l-.002 13.616-76.942 38.472c-.883.442-.883 1.159 0 1.601.884.442 2.317.442 3.201 0l78.268-39.136.002-14.554Z" fill="url(#c)"/><path d="M334.813 251.301c-.883-.442-2.317-.442-3.2 0l-199.237 99.626c-.883.442-.883 1.158 0 1.6.883.442 2.317.442 3.2 0l199.237-99.626c.883-.442.883-1.158 0-1.6Z" fill="url(#d)"/><path d="M320.731 244.259c-.884-.442-2.317-.442-3.2 0l-45.758 22.882-42.249.001-32.354 16.179c-.883.442-.883 1.158 0 1.6.883.442 2.316.442 3.2 0l31.028-15.515 42.25-.001 47.083-23.546c.883-.442.883-1.159 0-1.6Z" fill="url(#e)"/><path d="M292.567 230.174c-.884-.442-2.317-.442-3.201 0l-38.715 19.361-70.417.003-85.31 42.657c-.883.442-.884 1.159 0 1.6.883.442 2.316.442 3.2 0L182.11 251.8l70.415-.001 40.042-20.024c.883-.442.883-1.159 0-1.601Z" fill="url(#f)"/><path d="M278.483 223.131c-.883-.441-2.317-.441-3.2 0l-24.632 12.318-54.456.002-77.452-38.733-116.48.004-.232.005c-1.14.058-2.03.541-2.031 1.127 0 .585.892 1.067 2.033 1.125l.231.007 114.601-.004 77.454 38.733 58.206-.002 25.958-12.981c.883-.442.884-1.159 0-1.601Z" fill="url(#g)"/><path d="M424.206 271.897c-.884-.442-2.317-.442-3.201 0-.884.442-.884 1.159 0 1.601l32.301 16.152-.003 20.191-71.359 35.685 50.227 25.118-.005 28.224c0 .625 1.014 1.132 2.264 1.132 1.249 0 2.264-.507 2.264-1.132l.002-28.693.001-.469-48.351-24.18 69.483-34.747.004-21.597.001-.468-33.628-16.817Z" fill="url(#h)"/><path d="M377.059 272.427c-.883-.441-2.316-.441-3.2 0l-33.936 16.971 36.144 18.075 1.245 15.873c0 .625 1.013 1.131 2.263 1.131 1.249 0 2.262-.506 2.262-1.131l-1.245-16.812-34.268-17.136 30.735-15.37c.884-.442.884-1.159 0-1.601Z" fill="url(#i)"/><path d="m244.337 182.417-69.475.003-76.79-38.402c-.884-.442-2.319-.441-3.203.001-.883.442-.883 1.159 0 1.601l45.424 22.715-35.848.001-85.227-43.119-.172-.078c-.89-.362-2.2-.336-3.03.078-.827.414-.878 1.07-.154 1.514l.155.086L102.57 170.6l42.248-.002 28.166 14.085 70.417-.002 32.301 16.153c.884.442 2.317.442 3.201 0 .884-.442.883-1.158 0-1.6l-33.629-16.818-.937.001Z" fill="url(#j)"/><path d="M306.649 237.216c-.884-.442-2.317-.441-3.201 0l-25.293 12.649c-.884.442-.884 1.159 0 1.601.883.442 2.316.442 3.2 0l25.294-12.649c.883-.442.883-1.159 0-1.601Z" fill="url(#k)"/><path d="M452.375 257.81c-.884-.442-2.317-.441-3.201 0-.884.442-.884 1.159 0 1.601l32.301 16.153-.01 77.471 81.634 40.824.172.078c.889.362 2.2.336 3.029-.078.828-.414.882-1.071.157-1.516l-.157-.085-80.31-40.161.012-77.001.002-.469-33.629-16.817Z" fill="url(#l)"/><path d="M348.894 258.342c-.884-.441-2.317-.441-3.201 0l-18.741 9.372c-.882.442-.882 1.159 0 1.601.884.442 2.317.441 3.201 0l18.741-9.372c.883-.442.883-1.159 0-1.601Z" fill="url(#m)"/><path d="M570.478 352.448c-.116-.571-1.079-1.017-2.251-1.017s-2.135.446-2.251 1.017l-.013.116-.002 18.396-37.721-18.864.003-20.66-.013-.115c-.116-.571-1.078-1.016-2.249-1.016-1.172 0-2.135.446-2.251 1.016l-.013.116-.004 21.597 60.512 30.26.17.079c.889.362 2.202.336 3.03-.079.829-.414.881-1.07.156-1.514l-.156-.086-16.939-8.471.005-20.659-.013-.116Z" fill="url(#n)"/><path d="m174.863 154.248-87.35-43.683-.173-.077c-.888-.362-2.2-.337-3.028.077-.828.415-.882 1.071-.157 1.516l.157.085 88.675 44.345 42.25-.001 74.549 37.281c.884.442 2.316.442 3.2 0 .884-.442.884-1.158 0-1.6l-75.873-37.944-42.25.001Z" fill="url(#o)"/><path d="M466.457 250.768c-.884-.442-2.317-.442-3.201 0-.883.442-.883 1.159 0 1.601l46.385 23.196-.005 34.744-.002.469 109.8 54.909.172.077c.888.363 2.2.337 3.029-.077.828-.415.882-1.071.157-1.516l-.156-.086-108.473-54.245.005-35.213-47.711-23.859Z" fill="url(#p)"/><path d="M438.289 264.854c-.883-.442-2.316-.442-3.2 0-.884.442-.884 1.159 0 1.601l25.925 12.964.17.077c.889.363 2.201.337 3.03-.077.829-.415.879-1.071.154-1.516l-.154-.085-25.925-12.964Z" fill="url(#q)"/><path d="M217.613 98.158c-.888-.362-2.2-.336-3.028.078-.829.414-.882 1.07-.157 1.515l.155.086 34.544 17.275-.002 26.571-53.136.001-40.92-20.464.005-35.214-81.225-40.614-.172-.077c-.889-.363-2.2-.337-3.029.077-.828.414-.88 1.07-.155 1.515l.155.086 79.901 39.95-.007 34.745-.001.469 43.572 21.79 56.333-.001 67.507 33.759c.884.442 2.317.441 3.201 0 .884-.442.885-1.159.002-1.601l-67.506-33.759.003-28.172-35.868-17.937-.172-.078Z" fill="url(#r)"/><path d="m548.049 277.483-67.507-33.759c-.884-.442-2.316-.442-3.2 0-.884.442-.884 1.159 0 1.601l68.138 34.074.031.017 20.46 10.232-.003 28.17 14.746 7.375.17.076c.889.363 2.201.338 3.03-.076.829-.415.879-1.071.154-1.516l-.154-.085-13.421-6.712.003-24.969 37.721 18.863-.001 28.172 32.347 16.176c.884.442 2.317.442 3.201 0 .883-.442.883-1.158 0-1.6l-31.022-15.514.002-27.702.002-.468-60.173-30.091 49.934-.002 94.391 47.203.173.077c.889.363 2.199.337 3.027-.077.829-.414.882-1.071.157-1.515l-.157-.085-95.715-47.866-56.334.001Z" fill="url(#s)"/><path d="M259.853 161.542c-.889-.363-2.202-.336-3.03.078-.829.414-.881 1.07-.156 1.515l.156.086 47.047 23.527c.883.442 2.316.442 3.2 0 .884-.442.884-1.159 0-1.601l-47.047-23.527-.17-.078Z" fill="url(#t)"/><path d="M164.806 71.75c-.889-.363-2.202-.337-3.031.077-.828.414-.88 1.072-.155 1.516l.154.085 23.982 11.993-.004 28.17 21.786 10.895c.883.442 2.316.442 3.2 0 .884-.442.884-1.158 0-1.6l-20.46-10.232.005-28.171-25.307-12.656-.17-.077Z" fill="url(#u)"/><path d="M185.932 61.184c-.889-.362-2.203-.336-3.031.078-.828.414-.879 1.07-.155 1.515l.155.086 94.393 47.204-.006 35.214 54.751 27.38c.883.442 2.316.442 3.2 0 .884-.442.886-1.159.002-1.601l-53.425-26.717.003-35.214-95.717-47.867-.17-.078Z" fill="url(#v)"/><path d="M245.954 70.064c-.883-.442-2.316-.441-3.2 0-.884.442-.884 1.159 0 1.6l62.706 31.359-.008 42.258 40.669 20.338c.883.442 2.318.441 3.202-.001.883-.442.884-1.159 0-1.6l-39.343-19.675.005-41.789.002-.468-64.033-32.022Z" fill="url(#w)"/><path d="M494.626 236.681c-.884-.442-2.317-.442-3.201 0-.883.442-.883 1.159 0 1.601l61.13 30.569.171.078c.889.363 2.2.337 3.029-.078.829-.414.882-1.071.157-1.515l-.157-.085-61.129-30.57Z" fill="url(#x)"/><path d="M626.834 268.049c0-.587-.891-1.068-2.033-1.126l-.229-.006-41.313.002-74.549-37.281c-.884-.442-2.317-.442-3.201 0-.883.442-.883 1.159 0 1.601l75.874 37.943 43.189-.002.229-.006c1.142-.057 2.033-.539 2.033-1.125Z" fill="url(#y)"/><path d="M330.272 140.411c-.889-.363-2.2-.337-3.029.077-.829.415-.882 1.071-.157 1.516l.155.086 32.965 16.485c.884.442 2.318.441 3.202-.001.884-.442.884-1.158 0-1.6l-32.965-16.486-.171-.077Z" fill="url(#z)"/><path d="m555.096 238.747-32.301-16.153c-.884-.442-2.318-.441-3.202.001-.883.442-.884 1.159 0 1.601l33.629 16.817.936-.001 69.479-.002 122.556 61.287.171.077c.889.363 2.2.337 3.029-.077.829-.415.882-1.071.157-1.516l-.157-.085-123.881-61.95-70.416.001Z" fill="url(#A)"/><path d="M387.444 1.131c0-.625-1.013-1.131-2.263-1.131-1.249 0-2.262.507-2.262 1.131V91.52l-42.251 21.129-.005 22.065 33.629 16.817c.883.442 2.316.442 3.2 0 .884-.442.884-1.159 0-1.6l-32.301-16.154.003-20.191 42.253-21.13-.001-.468-.002-90.857Z" fill="url(#B)"/><path d="M676.111 278.495c-.116-.57-1.078-1.015-2.249-1.015-1.172 0-2.135.444-2.251 1.015l-.012.116-.003 14.553 46.431 23.22.17.077c.889.362 2.202.337 3.03-.077.829-.415.879-1.071.154-1.516l-.154-.085-45.105-22.556.002-13.616-.013-.116Z" fill="url(#C)"/><path d="M774.715 225.786c-.001-.585-.891-1.067-2.031-1.125l-.231-.006-90.603.003-77.453-38.733-58.206.003-26.592 13.298c-.883.442-.883 1.159 0 1.601.884.441 2.317.441 3.201 0l25.266-12.635 54.455-.002 77.453 38.733 92.479-.005.233-.004c1.14-.059 2.029-.542 2.029-1.128Z" fill="url(#D)"/><path d="M643.793 159.845c-.883-.441-2.316-.441-3.2 0l-23.986 11.995-70.416.002-40.675 20.341c-.884.442-.884 1.159 0 1.601.883.441 2.316.441 3.2 0l39.35-19.678 70.417-.003 25.31-12.657c.883-.442.883-1.159 0-1.601Z" fill="url(#E)"/><path d="M520.562 172.175c-.883-.442-2.316-.442-3.2 0l-25.928 12.966c-.884.442-.884 1.159 0 1.6.883.442 2.316.442 3.2 0l25.928-12.966c.884-.442.884-1.158 0-1.6Z" fill="url(#F)"/><path d="M701.547 88.719c-.883-.442-2.317-.442-3.201 0l-131.027 65.516-42.25.001-47.717 23.863c-.884.442-.884 1.158 0 1.6.883.442 2.316.442 3.2 0l46.392-23.199 42.249-.001 132.354-66.18c.883-.442.883-1.159 0-1.6Z" fill="url(#G)"/><path d="M646.341 81.113c-.884-.442-2.317-.442-3.201 0l-179.871 89.943c-.883.442-.883 1.159 0 1.601.884.441 2.317.442 3.201 0l179.871-89.944c.883-.442.883-1.159 0-1.6Z" fill="url(#H)"/><path d="M478.316 151.048c-.884-.442-2.317-.442-3.201 0l-25.928 12.966c-.883.442-.883 1.159 0 1.601.884.441 2.317.441 3.201 0l25.928-12.966c.883-.442.883-1.159 0-1.601Z" fill="url(#I)"/><path d="M502.971 89.422c-.884-.441-2.317-.441-3.201 0l-25.31 12.657-.005 35.215-39.35 19.678c-.883.442-.883 1.159 0 1.601.884.441 2.317.441 3.201 0l40.676-20.342.003-35.213 23.986-11.995c.883-.442.883-1.159 0-1.6Z" fill="url(#J)"/><path d="M422.661 49.73c0-.625-1.013-1.131-2.262-1.132-1.25 0-2.262.507-2.263 1.132l-.011 67.375 34.268 17.137-31.37 15.688c-.883.442-.883 1.158 0 1.6.884.442 2.317.442 3.201 0l34.57-17.288-36.144-18.075.011-66.437Z" fill="url(#K)"/><path d="M309.993 53.255c0-.586-.892-1.067-2.033-1.125l-.231-.007-41.313.002-31.021-15.513-.17-.077c-.889-.363-2.202-.338-3.031.077-.828.414-.879 1.07-.153 1.515l.153.085 74.594 37.303h43.187l.232-.007c1.141-.058 2.032-.54 2.032-1.126 0-.586-.89-1.067-2.031-1.125l-.231-.006-41.313.001-37.721-18.863 36.786-.001.231-.007c1.141-.058 2.033-.54 2.033-1.126Z" fill="url(#L)"/><path d="M800 250.434c0-.585-.889-1.067-2.03-1.125l-.233-.006-108.85.005-48.626-24.317c-.884-.442-2.317-.442-3.201 0-.884.442-.883 1.158 0 1.6l49.951 24.98 110.726-.005.232-.005c1.14-.058 2.031-.541 2.031-1.127Z" fill="url(#M)"/><path d="M524.095 99.986c-.884-.442-2.317-.442-3.201 0l-18.268 9.136-.002 14.554c0 .625 1.013 1.131 2.262 1.132 1.25-.001 2.265-.508 2.265-1.133l.001-13.616 16.943-8.473c.883-.442.883-1.158 0-1.6Z" fill="url(#N)"/><path d="M389.952 343.13c-2.652-1.326-6.951-1.326-9.603.001-2.651 1.326-2.652 3.476 0 4.801 2.651 1.326 6.95 1.326 9.602 0 2.651-1.326 2.651-3.476.001-4.802Z" fill="url(#O)"/><path d="M235.587 265.838c-2.651-1.326-6.951-1.326-9.602 0-2.652 1.326-2.652 3.476-.001 4.802 2.651 1.326 6.951 1.325 9.602-.001 2.652-1.326 2.652-3.476.001-4.801Z" fill="url(#P)"/><path d="M122.711 195.084c-2.651-1.326-6.951-1.326-9.602 0-2.652 1.326-2.652 3.476-.001 4.802 2.651 1.326 6.951 1.326 9.602 0 2.652-1.326 2.652-3.476.001-4.802Z" fill="url(#Q)"/><path d="M325.219 283.595c-2.651-1.326-6.95-1.326-9.602 0s-2.652 3.476-.001 4.802c2.652 1.326 6.951 1.326 9.603 0s2.652-3.476 0-4.802Z" fill="url(#R)"/><path d="M255.884 248.922c-2.651-1.326-6.95-1.326-9.602 0s-2.652 3.476-.001 4.802c2.651 1.326 6.951 1.326 9.602 0 2.652-1.326 2.652-3.476.001-4.802Z" fill="url(#S)"/><path d="M382.718 305.582c-2.651-1.326-6.951-1.326-9.602 0-2.652 1.326-2.652 3.476-.001 4.802 2.651 1.326 6.951 1.326 9.602 0 2.652-1.326 2.652-3.476.001-4.802Z" fill="url(#T)"/><path d="M108.313 167.074c-2.651-1.326-6.95-1.325-9.602.001-2.652 1.326-2.652 3.476 0 4.801 2.651 1.326 6.95 1.326 9.602 0 2.651-1.326 2.652-3.476 0-4.802Z" fill="url(#U)"/><path d="M284.635 248.075c-2.651-1.326-6.95-1.325-9.602.001-2.652 1.326-2.652 3.476-.001 4.802 2.651 1.325 6.951 1.325 9.602-.001 2.652-1.326 2.652-3.476.001-4.802Z" fill="url(#V)"/><path d="M257.577 234.545c-2.651-1.326-6.95-1.326-9.602 0s-2.652 3.476-.001 4.802c2.652 1.326 6.951 1.325 9.603-.001 2.651-1.326 2.652-3.476 0-4.801Z" fill="url(#W)"/><path d="M488.712 349.759c-2.651-1.326-6.95-1.326-9.602 0-2.651 1.326-2.65 3.475.001 4.801s6.949 1.326 9.601.001c2.651-1.326 2.652-3.476 0-4.802Z" fill="url(#X)"/><path d="M333.678 265.834c-2.651-1.326-6.951-1.326-9.602 0-2.652 1.326-2.652 3.476-.001 4.802 2.651 1.326 6.951 1.326 9.602 0 2.652-1.326 2.652-3.476.001-4.802Z" fill="url(#Y)"/><path d="M178.728 181.476c-2.651-1.326-6.951-1.326-9.602 0-2.652 1.326-2.651 3.476-.001 4.802 2.652 1.326 6.951 1.326 9.603 0 2.651-1.327 2.651-3.476 0-4.802Z" fill="url(#Z)"/><path d="M149.923 167.071c-2.651-1.325-6.95-1.325-9.602 0-2.652 1.326-2.651 3.476-.001 4.802 2.652 1.326 6.951 1.326 9.603 0 2.651-1.326 2.652-3.476 0-4.802Z" fill="url(#aa)"/><path d="M100.316 142.264c-2.65-1.326-6.95-1.325-9.602 0-2.652 1.327-2.652 3.476 0 4.802 2.65 1.326 6.95 1.326 9.602 0 2.651-1.326 2.651-3.476 0-4.802Z" fill="url(#ab)"/><path d="M572.388 371.933c-2.651-1.326-6.95-1.325-9.602.001-2.652 1.326-2.652 3.476-.001 4.801 2.652 1.326 6.951 1.326 9.603 0 2.651-1.326 2.652-3.476 0-4.802Z" fill="url(#ac)"/><path d="M529.183 350.327c-2.652-1.326-6.951-1.325-9.603.001-2.651 1.326-2.652 3.476 0 4.801 2.651 1.326 6.95 1.326 9.602 0 2.651-1.326 2.651-3.476.001-4.802Z" fill="url(#ad)"/><path d="M460.372 307.915c-2.651-1.326-6.951-1.326-9.602 0-2.652 1.326-2.652 3.476-.001 4.802 2.651 1.326 6.951 1.326 9.602 0 2.652-1.326 2.652-3.476.001-4.802Z" fill="url(#ae)"/><path d="M572.39 349.525c-2.651-1.325-6.951-1.325-9.602.001-2.652 1.326-2.652 3.476-.001 4.802 2.651 1.325 6.95 1.325 9.602-.001 2.651-1.326 2.652-3.476.001-4.802Z" fill="url(#af)"/><path d="M530.784 328.72c-2.651-1.326-6.95-1.326-9.602 0s-2.652 3.476-.001 4.802c2.652 1.326 6.951 1.326 9.603-.001 2.651-1.326 2.652-3.476 0-4.801Z" fill="url(#ag)"/><path d="M178.729 152.666c-2.651-1.325-6.951-1.325-9.602.001-2.652 1.325-2.652 3.475-.001 4.801 2.651 1.326 6.951 1.326 9.602 0 2.652-1.326 2.652-3.476.001-4.802Z" fill="url(#ah)"/><path d="M460.375 287.105c-2.651-1.326-6.951-1.325-9.602 0-2.652 1.326-2.652 3.476-.001 4.802 2.651 1.326 6.95 1.326 9.602 0 2.651-1.326 2.652-3.476.001-4.802Z" fill="url(#ai)"/><path d="M249.142 181.473c-2.651-1.325-6.951-1.325-9.602.001-2.652 1.326-2.652 3.476-.001 4.801 2.651 1.326 6.951 1.326 9.602 0 2.652-1.326 2.652-3.476.001-4.802Z" fill="url(#aj)"/><path d="M514.784 307.912c-2.652-1.325-6.95-1.325-9.601.001-2.651 1.326-2.653 3.475-.003 4.801 2.652 1.326 6.951 1.326 9.603 0s2.652-3.476.001-4.802Z" fill="url(#ak)"/><path d="M466.778 275.902c-2.651-1.326-6.951-1.326-9.602 0-2.651 1.327-2.652 3.477-.001 4.802 2.651 1.326 6.951 1.326 9.602 0 2.652-1.326 2.652-3.476.001-4.802Z" fill="url(#al)"/><path d="M220.339 152.665c-2.651-1.326-6.951-1.326-9.602 0-2.651 1.326-2.651 3.476-.001 4.802 2.651 1.326 6.951 1.325 9.602 0 2.652-1.327 2.653-3.476.001-4.802Z" fill="url(#am)"/><path d="M199.536 142.261c-2.652-1.325-6.951-1.325-9.603.001-2.651 1.326-2.651 3.476 0 4.802 2.651 1.325 6.95 1.325 9.602-.001 2.652-1.326 2.652-3.476.001-4.802Z" fill="url(#an)"/><path d="M157.93 121.456c-2.651-1.326-6.951-1.326-9.602 0-2.651 1.326-2.652 3.476-.001 4.802 2.651 1.326 6.951 1.325 9.602-.001 2.652-1.326 2.653-3.476.001-4.801Z" fill="url(#ao)"/><path d="M615.601 335.919c-2.652-1.325-6.951-1.325-9.603.001-2.651 1.326-2.651 3.476 0 4.802 2.651 1.325 6.95 1.325 9.602-.001 2.652-1.326 2.652-3.476.001-4.802Z" fill="url(#ap)"/><path d="M586.797 321.516c-2.651-1.326-6.95-1.326-9.602 0-2.651 1.326-2.652 3.476-.001 4.802 2.652 1.325 6.951 1.325 9.603-.001 2.651-1.326 2.651-3.475 0-4.801Z" fill="url(#aq)"/><path d="M572.395 314.313c-2.651-1.326-6.951-1.325-9.602.001-2.652 1.326-2.652 3.476-.001 4.802 2.651 1.325 6.951 1.325 9.602-.001 2.652-1.326 2.652-3.476.001-4.802Z" fill="url(#ar)"/><path d="M489.181 272.7c-2.652-1.326-6.951-1.326-9.603 0-2.651 1.327-2.652 3.477 0 4.802 2.651 1.326 6.95 1.326 9.602 0s2.652-3.476.001-4.802Z" fill="url(#as)"/><path d="M263.547 159.867c-2.651-1.326-6.951-1.326-9.602 0-2.652 1.326-2.652 3.476-.001 4.802 2.651 1.326 6.951 1.325 9.602 0 2.652-1.326 2.652-3.476.001-4.802Z" fill="url(#at)"/><path d="M255.549 143.06c-2.651-1.326-6.951-1.326-9.602 0-2.652 1.326-2.652 3.476-.001 4.802 2.651 1.326 6.951 1.326 9.602 0 2.652-1.326 2.652-3.476.001-4.802Z" fill="url(#au)"/><path d="M212.342 121.453c-2.652-1.326-6.951-1.326-9.603 0-2.651 1.326-2.652 3.476 0 4.802 2.651 1.326 6.95 1.326 9.602 0s2.652-3.476.001-4.802Z" fill="url(#av)"/><path d="M614.008 307.909c-2.652-1.326-6.951-1.326-9.603 0s-2.652 3.476 0 4.802c2.651 1.325 6.95 1.325 9.602-.001 2.651-1.326 2.651-3.476.001-4.801Z" fill="url(#aw)"/><path d="M572.4 287.102c-2.651-1.326-6.95-1.326-9.602 0s-2.652 3.476-.001 4.802c2.652 1.326 6.951 1.326 9.603 0 2.651-1.326 2.652-3.476 0-4.802Z" fill="url(#ax)"/><path d="M551.599 276.699c-2.652-1.325-6.951-1.325-9.603.001-2.652 1.326-2.652 3.476 0 4.802 2.651 1.325 6.95 1.325 9.602-.001 2.651-1.326 2.651-3.476.001-4.802Z" fill="url(#ay)"/><path d="M558 265.494c-2.651-1.325-6.951-1.326-9.602 0-2.652 1.326-2.652 3.476-.001 4.802 2.651 1.326 6.951 1.326 9.602 0 2.652-1.326 2.652-3.476.001-4.802Z" fill="url(#az)"/><path d="M255.553 114.249c-2.651-1.326-6.951-1.326-9.602 0-2.652 1.326-2.652 3.476-.001 4.802 2.651 1.326 6.951 1.325 9.602-.001 2.652-1.326 2.653-3.476.001-4.801Z" fill="url(#aA)"/><path d="M220.349 96.644c-2.652-1.326-6.951-1.326-9.603 0-2.651 1.326-2.652 3.476 0 4.802 2.651 1.326 6.95 1.326 9.602 0s2.652-3.476.001-4.802Z" fill="url(#aB)"/><path d="M191.544 82.24c-2.652-1.327-6.951-1.326-9.603 0-2.651 1.326-2.651 3.476 0 4.801 2.651 1.326 6.95 1.326 9.602 0s2.652-3.476.001-4.802Z" fill="url(#aC)"/><path d="M607.611 275.896c-2.652-1.325-6.951-1.325-9.603.001-2.652 1.326-2.652 3.476 0 4.802 2.651 1.325 6.95 1.325 9.602-.001 2.651-1.326 2.651-3.476.001-4.802Z" fill="url(#aD)"/><path d="M586.807 265.493c-2.651-1.325-6.951-1.325-9.602 0-2.652 1.326-2.652 3.476-.001 4.802 2.651 1.326 6.951 1.326 9.602 0 2.652-1.326 2.652-3.476.001-4.802Z" fill="url(#aE)"/><path d="M333.967 139.055c-2.651-1.326-6.951-1.326-9.602 0-2.652 1.326-2.652 3.476-.001 4.802 2.651 1.326 6.951 1.325 9.602-.001 2.652-1.326 2.652-3.476.001-4.801Z" fill="url(#aF)"/><path d="M282.759 107.046c-2.651-1.326-6.95-1.326-9.602 0s-2.652 3.476-.001 4.802c2.652 1.326 6.951 1.326 9.602-.001 2.652-1.326 2.652-3.476.001-4.801Z" fill="url(#aG)"/><path d="M348.372 131.851c-2.652-1.325-6.951-1.325-9.603.001-2.651 1.326-2.651 3.476-.001 4.801 2.652 1.326 6.951 1.326 9.603 0s2.652-3.476.001-4.802Z" fill="url(#aH)"/><path d="M678.024 290.3c-2.651-1.326-6.951-1.325-9.602.001-2.652 1.326-2.652 3.476-.001 4.801 2.651 1.326 6.951 1.326 9.602 0 2.652-1.326 2.652-3.476.001-4.802Z" fill="url(#aI)"/><path d="M628.415 265.492c-2.651-1.326-6.95-1.325-9.602.001-2.652 1.326-2.652 3.476-.001 4.802 2.652 1.325 6.951 1.325 9.603-.001 2.651-1.326 2.651-3.476 0-4.802Z" fill="url(#aJ)"/><path d="M311.567 100.642c-2.651-1.325-6.951-1.326-9.602 0-2.651 1.326-2.651 3.476-.001 4.802 2.651 1.326 6.951 1.326 9.602 0 2.652-1.326 2.652-3.476.001-4.802Z" fill="url(#aK)"/><path d="M678.026 275.895c-2.651-1.326-6.951-1.326-9.602 0-2.652 1.326-2.652 3.476-.001 4.802 2.651 1.326 6.951 1.326 9.602 0 2.651-1.327 2.652-3.477.001-4.802Z" fill="url(#aL)"/><path d="M346.774 110.245c-2.651-1.326-6.951-1.326-9.602 0-2.652 1.326-2.651 3.476-.001 4.802 2.652 1.326 6.951 1.325 9.603-.001 2.651-1.326 2.651-3.476 0-4.801Z" fill="url(#aM)"/><path d="M630.023 237.481c-2.651-1.325-6.95-1.325-9.602.001-2.652 1.326-2.652 3.476-.001 4.802 2.652 1.325 6.951 1.325 9.602-.001 2.652-1.326 2.652-3.476.001-4.802Z" fill="url(#aN)"/><path d="M311.571 71.83c-2.651-1.325-6.95-1.325-9.602.001-2.652 1.326-2.652 3.476-.001 4.802 2.651 1.326 6.951 1.326 9.602 0 2.652-1.326 2.652-3.476.001-4.802Z" fill="url(#aO)"/><path d="M269.966 51.025c-2.652-1.326-6.951-1.325-9.603 0-2.651 1.327-2.652 3.476 0 4.802 2.651 1.326 6.95 1.326 9.602 0 2.651-1.326 2.652-3.476.001-4.802Z" fill="url(#aP)"/><path d="M550.01 184.665c-2.652-1.326-6.951-1.326-9.603 0-2.651 1.326-2.651 3.476 0 4.802 2.651 1.326 6.95 1.325 9.602-.001 2.652-1.326 2.652-3.476.001-4.801Z" fill="url(#aQ)"/><path d="M522.807 171.061c-2.652-1.326-6.951-1.326-9.603 0-2.651 1.326-2.652 3.476 0 4.802 2.651 1.326 6.95 1.326 9.602 0 2.651-1.326 2.652-3.476.001-4.802Z" fill="url(#aR)"/><path d="M480.691 150c-2.652-1.326-6.951-1.326-9.603 0-2.651 1.326-2.651 3.476 0 4.802 2.651 1.326 6.95 1.326 9.602 0s2.652-3.476.001-4.802Z" fill="url(#aS)"/><path d="M692.432 247.884c-2.652-1.326-6.951-1.326-9.602 0-2.652 1.326-2.652 3.476-.001 4.802 2.651 1.326 6.95 1.326 9.602 0s2.652-3.476.001-4.802Z" fill="url(#aT)"/><path d="M642.823 223.076c-2.651-1.325-6.95-1.325-9.602.001-2.651 1.326-2.651 3.476-.001 4.801 2.652 1.326 6.951 1.326 9.603 0 2.651-1.326 2.652-3.476 0-4.802Z" fill="url(#aU)"/><path d="M460.395 131.849c-2.651-1.326-6.95-1.326-9.602 0-2.651 1.326-2.651 3.476-.001 4.802 2.652 1.326 6.951 1.326 9.603 0 2.651-1.326 2.652-3.476 0-4.802Z" fill="url(#aV)"/><path d="M425.191 114.244c-2.651-1.326-6.951-1.326-9.602 0-2.652 1.327-2.652 3.477-.001 4.802 2.651 1.326 6.951 1.326 9.602 0 2.652-1.326 2.652-3.476.001-4.802Z" fill="url(#aW)"/><path d="M551.612 171.059c-2.651-1.326-6.951-1.325-9.602.001-2.652 1.326-2.652 3.476-.001 4.801 2.651 1.326 6.95 1.326 9.602 0s2.652-3.476.001-4.802Z" fill="url(#aX)"/><path d="M481.201 135.849c-2.651-1.326-6.95-1.326-9.602 0-2.651 1.326-2.652 3.476-.001 4.802 2.652 1.326 6.951 1.325 9.603 0 2.651-1.326 2.651-3.476 0-4.802Z" fill="url(#aY)"/><path d="M388.387 89.435c-2.651-1.326-6.951-1.326-9.602 0-2.651 1.326-2.651 3.476-.001 4.802 2.651 1.326 6.951 1.326 9.603 0 2.651-1.326 2.652-3.476 0-4.802Z" fill="url(#aZ)"/><path d="M353.181 71.83c-2.651-1.326-6.95-1.326-9.602 0-2.651 1.326-2.652 3.476-.001 4.802 2.651 1.325 6.951 1.325 9.603 0 2.651-1.327 2.652-3.477 0-4.803Z" fill="url(#ba)"/><path d="M311.576 51.024c-2.652-1.326-6.951-1.326-9.603 0-2.651 1.326-2.651 3.476 0 4.802 2.651 1.325 6.95 1.325 9.602 0 2.652-1.327 2.652-3.477.001-4.802Z" fill="url(#bb)"/><path d="M531.903 153.2c-2.652-1.326-6.951-1.326-9.603 0-2.651 1.326-2.651 3.476 0 4.802 2.651 1.326 6.95 1.325 9.602-.001 2.652-1.326 2.652-3.476.001-4.801Z" fill="url(#bc)"/><path d="M684.433 223.075c-2.651-1.326-6.949-1.325-9.6.001-2.651 1.326-2.653 3.475-.003 4.801 2.652 1.326 6.951 1.325 9.603 0 2.651-1.326 2.652-3.476 0-4.802Z" fill="url(#bd)"/><path d="M607.622 184.663c-2.651-1.326-6.951-1.325-9.602.001-2.652 1.326-2.652 3.476-.001 4.802 2.651 1.325 6.951 1.325 9.602-.001 2.652-1.326 2.652-3.476.001-4.802Z" fill="url(#be)"/><path d="M572.418 152.652c-2.651-1.326-6.951-1.326-9.602 0-2.652 1.327-2.652 3.476-.001 4.802 2.651 1.326 6.95 1.326 9.602 0s2.652-3.476.001-4.802Z" fill="url(#bf)"/><path d="M510.009 121.443c-2.651-1.326-6.951-1.326-9.602 0-2.652 1.326-2.653 3.476-.001 4.802 2.651 1.326 6.951 1.326 9.602 0 2.652-1.326 2.652-3.476.001-4.802Z" fill="url(#bg)"/><path d="M622.029 171.057c-2.651-1.326-6.951-1.326-9.602 0-2.652 1.326-2.652 3.476-.001 4.802 2.651 1.326 6.951 1.326 9.602 0 2.652-1.326 2.652-3.476.001-4.802Z" fill="url(#bh)"/><path d="M481.208 100.636c-2.651-1.326-6.95-1.326-9.602 0s-2.652 3.476-.001 4.802c2.652 1.326 6.951 1.326 9.602 0 2.652-1.326 2.652-3.476.001-4.802Z" fill="url(#bi)"/><g filter="url(#bj)"><path fill-rule="evenodd" clip-rule="evenodd" d="m389.016 147.001-.562.007c-2.797.069-5.452.656-7.442 1.651l-108.695 54.355c-2.122 1.061-3.315 2.502-3.315 4.003L269 218.288c0 1.501 1.193 2.941 3.314 4.002l108.679 54.348c1.99.995 4.645 1.581 7.443 1.65l.561.007 22.539-.001c3.001 0 5.882-.597 8.004-1.658l108.694-54.355c2.123-1.061 3.316-2.502 3.316-4.003l.002-11.271-.015-.28c-.138-1.399-1.31-2.727-3.3-3.722l-108.679-54.348c-2.122-1.061-5.002-1.657-8.003-1.657l-22.539.001Z" fill="#00CDE3" fill-opacity=".5"/></g><g filter="url(#bk)"><path fill-rule="evenodd" clip-rule="evenodd" d="m419.016 147.001-.562.007c-2.797.069-5.452.656-7.442 1.651l-108.695 54.355c-2.122 1.061-3.315 2.502-3.315 4.003L299 218.288c0 1.501 1.193 2.941 3.314 4.002l98.679 54.348c1.99.995 4.645 1.581 7.443 1.65l.561.007 32.539-.001c3.001 0 5.882-.597 8.004-1.658l108.694-54.355c2.123-1.061 3.316-2.502 3.316-4.003l.002-11.271-.015-.28c-.138-1.399-1.31-2.727-3.3-3.722l-108.679-54.348c-2.122-1.061-5.002-1.657-8.003-1.657l-22.539.001Z" fill="url(#bl)"/></g><path fill-rule="evenodd" clip-rule="evenodd" d="m389.016 128.001-.562.007c-2.797.069-5.452.656-7.442 1.651l-108.695 54.355c-2.122 1.061-3.315 2.502-3.315 4.003L269 218.288c0 1.501 1.193 2.941 3.314 4.002l108.679 54.348c1.99.995 4.645 1.581 7.443 1.65l.561.007 22.539-.001c3.001 0 5.882-.597 8.004-1.658l108.694-54.355c2.123-1.061 3.316-2.502 3.316-4.003l.002-30.271-.015-.28c-.138-1.399-1.31-2.727-3.3-3.722l-108.679-54.348c-2.122-1.061-5.002-1.657-8.003-1.657l-22.539.001Z" fill="url(#bm)"/><path fill-rule="evenodd" clip-rule="evenodd" d="m389.016 121.001-.562.007c-2.797.069-5.452.656-7.442 1.651l-108.695 54.355c-2.122 1.061-3.315 2.502-3.315 4.003L269 192.288c0 1.501 1.193 2.941 3.314 4.002l108.679 54.348c1.99.995 4.645 1.581 7.443 1.65l.561.007 22.539-.001c3.001 0 5.882-.597 8.004-1.658l108.694-54.355c2.123-1.061 3.316-2.502 3.316-4.003l.002-11.271-.015-.28c-.138-1.399-1.31-2.727-3.3-3.722l-108.679-54.348c-2.122-1.061-5.002-1.657-8.003-1.657l-22.539.001Z" fill="url(#bn)"/><path d="M420.494 251c3-1.5 102.5-51 107.5-53.5.598-.299 3.506-2 3.506-5.5v-11c0-2.372-2.5-3.5-2.5-3.5s1.5.909 1.5 4.5v9.5c0 2.5-2.87 4.181-3.506 4.5-3.215 1.615-104.5 52-107.5 53.5s-6.5 1.5-9.5 1.5h-21.5c-2 0-5 0-10-2.5s-99.5-49.5-104.5-52c-1.72-.86-3.942-3-4-5 0-.675-.006-8.5 0-10.5s1-3 1-3-1.994.395-1.994 3.5c0 2.5-.006 10.081-.006 11 0 2 2.52 4.26 4 5l106 53c4 2 5 2.5 9.5 2.5h21.5c2.5 0 7.5-.5 10.5-2Z" fill="url(#bo)"/><path fill-rule="evenodd" clip-rule="evenodd" d="m453.853 156-.256.004c-1.279.031-2.492.299-3.402.754l-49.679 24.839c-.97.486-1.515 1.144-1.515 1.83l-.001 5.151c0 .686.545 1.344 1.515 1.829l49.672 24.836c.909.454 2.123.722 3.401.754l.257.003h10.302c1.371 0 2.688-.273 3.658-.758l49.679-24.839c.97-.486 1.515-1.144 1.515-1.83l.001-5.151-.007-.128c-.063-.639-.598-1.246-1.508-1.701l-49.672-24.836c-.97-.485-2.286-.757-3.658-.757h-10.302Z" fill="url(#bp)"/><path fill-rule="evenodd" clip-rule="evenodd" d="m453.853 160-.256.004c-1.279.031-2.492.299-3.402.754l-49.679 24.839c-.97.486-1.515 1.144-1.515 1.83l-.001 1.151c0 .686.545 1.344 1.515 1.829l49.672 24.836c.909.454 2.123.722 3.401.754l.257.003h10.302c1.371 0 2.688-.273 3.658-.758l49.679-24.839c.97-.486 1.515-1.144 1.515-1.83l.001-1.151-.007-.128c-.063-.639-.598-1.246-1.508-1.701l-49.672-24.836c-.97-.485-2.286-.757-3.658-.757h-10.302Z" fill="url(#bq)"/><g filter="url(#br)" fill="#fff"><path d="M448.662 198.666c.877.437 2.359.322 2.944-.23l22.144-20.901c.379-.358.25-.796-.32-1.08l-6.388-3.188c-.569-.284-1.446-.349-2.164-.159l-41.882 11.051c-1.105.291-1.337 1.031-.461 1.468l3.113 1.554c.568.283 1.442.348 2.159.161l38.76-10.148c.398-.104.482-.37.167-.528-.315-.157-.847-.115-1.057.083l-20.443 19.285c-.38.358-.251.796.319 1.08l3.109 1.552Zm2.02-6.482c.718.358 1.888.355 2.613-.006l2.788-1.392c.724-.361.729-.945.011-1.303l-15.18-7.576c-.719-.359-1.888-.356-2.613.006l-2.788 1.391c-.725.362-.73.945-.012 1.304l15.181 7.576Zm10.145 12.549c.718.358 1.888.356 2.613-.006l32.013-15.976c.725-.362.73-.945.012-1.304l-3.068-1.531c-.718-.358-1.888-.355-2.612.006l-32.014 15.976c-.724.362-.73.946-.011 1.304l3.067 1.531Z"/></g><path d="M448.662 198.666c.877.437 2.359.322 2.944-.23l22.144-20.901c.379-.358.25-.796-.32-1.08l-6.388-3.188c-.569-.284-1.446-.349-2.164-.159l-41.882 11.051c-1.105.291-1.337 1.031-.461 1.468l3.113 1.554c.568.283 1.442.348 2.159.161l38.76-10.148c.398-.104.482-.37.167-.528-.315-.157-.847-.115-1.057.083l-20.443 19.285c-.38.358-.251.796.319 1.08l3.109 1.552Zm2.02-6.482c.718.358 1.888.355 2.613-.006l2.788-1.392c.724-.361.729-.945.011-1.303l-15.18-7.576c-.719-.359-1.888-.356-2.613.006l-2.788 1.391c-.725.362-.73.945-.012 1.304l15.181 7.576Zm10.145 12.549c.718.358 1.888.356 2.613-.006l32.013-15.976c.725-.362.73-.945.012-1.304l-3.068-1.531c-.718-.358-1.888-.355-2.612.006l-32.014 15.976c-.724.362-.73.946-.011 1.304l3.067 1.531Z" fill="#fff" fill-opacity=".8"/></g><defs><radialGradient id="b" cx="0" cy="0" r="1" gradientUnits="userSpaceOnUse" gradientTransform="matrix(375.99903 -3.00002 1.49684 187.60303 424.001 217)"><stop offset=".449" stop-color="#00CDE3"/><stop offset="1" stop-color="#00CDE3" stop-opacity="0"/></radialGradient><radialGradient id="c" cx="0" cy="0" r="1" gradientUnits="userSpaceOnUse" gradientTransform="matrix(375.99903 -3.00002 1.49684 187.60303 424.001 217)"><stop offset=".449" stop-color="#00CDE3"/><stop offset="1" stop-color="#00CDE3" stop-opacity="0"/></radialGradient><radialGradient id="d" cx="0" cy="0" r="1" gradientUnits="userSpaceOnUse" gradientTransform="matrix(375.99903 -3.00002 1.49684 187.60303 424.001 217)"><stop offset=".449" stop-color="#00CDE3"/><stop offset="1" stop-color="#00CDE3" stop-opacity="0"/></radialGradient><radialGradient id="e" cx="0" cy="0" r="1" gradientUnits="userSpaceOnUse" gradientTransform="matrix(375.99903 -3.00002 1.49684 187.60303 424.001 217)"><stop offset=".449" stop-color="#00CDE3"/><stop offset="1" stop-color="#00CDE3" stop-opacity="0"/></radialGradient><radialGradient id="f" cx="0" cy="0" r="1" gradientUnits="userSpaceOnUse" gradientTransform="matrix(375.99903 -3.00002 1.49684 187.60303 424.001 217)"><stop offset=".449" stop-color="#00CDE3"/><stop offset="1" stop-color="#00CDE3" stop-opacity="0"/></radialGradient><radialGradient id="g" cx="0" cy="0" r="1" gradientUnits="userSpaceOnUse" gradientTransform="matrix(375.99903 -3.00002 1.49684 187.60303 424.001 217)"><stop offset=".449" stop-color="#00CDE3"/><stop offset="1" stop-color="#00CDE3" stop-opacity="0"/></radialGradient><radialGradient id="h" cx="0" cy="0" r="1" gradientUnits="userSpaceOnUse" gradientTransform="matrix(375.99903 -3.00002 1.49684 187.60303 424.001 217)"><stop offset=".449" stop-color="#00CDE3"/><stop offset="1" stop-color="#00CDE3" stop-opacity="0"/></radialGradient><radialGradient id="i" cx="0" cy="0" r="1" gradientUnits="userSpaceOnUse" gradientTransform="matrix(375.99903 -3.00002 1.49684 187.60303 424.001 217)"><stop offset=".449" stop-color="#00CDE3"/><stop offset="1" stop-color="#00CDE3" stop-opacity="0"/></radialGradient><radialGradient id="j" cx="0" cy="0" r="1" gradientUnits="userSpaceOnUse" gradientTransform="matrix(375.99903 -3.00002 1.49684 187.60303 424.001 217)"><stop offset=".449" stop-color="#00CDE3"/><stop offset="1" stop-color="#00CDE3" stop-opacity="0"/></radialGradient><radialGradient id="k" cx="0" cy="0" r="1" gradientUnits="userSpaceOnUse" gradientTransform="matrix(375.99903 -3.00002 1.49684 187.60303 424.001 217)"><stop offset=".449" stop-color="#00CDE3"/><stop offset="1" stop-color="#00CDE3" stop-opacity="0"/></radialGradient><radialGradient id="l" cx="0" cy="0" r="1" gradientUnits="userSpaceOnUse" gradientTransform="matrix(375.99903 -3.00002 1.49684 187.60303 424.001 217)"><stop offset=".449" stop-color="#00CDE3"/><stop offset="1" stop-color="#00CDE3" stop-opacity="0"/></radialGradient><radialGradient id="m" cx="0" cy="0" r="1" gradientUnits="userSpaceOnUse" gradientTransform="matrix(375.99903 -3.00002 1.49684 187.60303 424.001 217)"><stop offset=".449" stop-color="#00CDE3"/><stop offset="1" stop-color="#00CDE3" stop-opacity="0"/></radialGradient><radialGradient id="n" cx="0" cy="0" r="1" gradientUnits="userSpaceOnUse" gradientTransform="matrix(375.99903 -3.00002 1.49684 187.60303 424.001 217)"><stop offset=".449" stop-color="#00CDE3"/><stop offset="1" stop-color="#00CDE3" stop-opacity="0"/></radialGradient><radialGradient id="o" cx="0" cy="0" r="1" gradientUnits="userSpaceOnUse" gradientTransform="matrix(375.99903 -3.00002 1.49684 187.60303 424.001 217)"><stop offset=".449" stop-color="#00CDE3"/><stop offset="1" stop-color="#00CDE3" stop-opacity="0"/></radialGradient><radialGradient id="p" cx="0" cy="0" r="1" gradientUnits="userSpaceOnUse" gradientTransform="matrix(375.99903 -3.00002 1.49684 187.60303 424.001 217)"><stop offset=".449" stop-color="#00CDE3"/><stop offset="1" stop-color="#00CDE3" stop-opacity="0"/></radialGradient><radialGradient id="q" cx="0" cy="0" r="1" gradientUnits="userSpaceOnUse" gradientTransform="matrix(375.99903 -3.00002 1.49684 187.60303 424.001 217)"><stop offset=".449" stop-color="#00CDE3"/><stop offset="1" stop-color="#00CDE3" stop-opacity="0"/></radialGradient><radialGradient id="r" cx="0" cy="0" r="1" gradientUnits="userSpaceOnUse" gradientTransform="matrix(375.99903 -3.00002 1.49684 187.60303 424.001 217)"><stop offset=".449" stop-color="#00CDE3"/><stop offset="1" stop-color="#00CDE3" stop-opacity="0"/></radialGradient><radialGradient id="s" cx="0" cy="0" r="1" gradientUnits="userSpaceOnUse" gradientTransform="matrix(375.99903 -3.00002 1.49684 187.60303 424.001 217)"><stop offset=".449" stop-color="#00CDE3"/><stop offset="1" stop-color="#00CDE3" stop-opacity="0"/></radialGradient><radialGradient id="t" cx="0" cy="0" r="1" gradientUnits="userSpaceOnUse" gradientTransform="matrix(375.99903 -3.00002 1.49684 187.60303 424.001 217)"><stop offset=".449" stop-color="#00CDE3"/><stop offset="1" stop-color="#00CDE3" stop-opacity="0"/></radialGradient><radialGradient id="u" cx="0" cy="0" r="1" gradientUnits="userSpaceOnUse" gradientTransform="matrix(375.99903 -3.00002 1.49684 187.60303 424.001 217)"><stop offset=".449" stop-color="#00CDE3"/><stop offset="1" stop-color="#00CDE3" stop-opacity="0"/></radialGradient><radialGradient id="v" cx="0" cy="0" r="1" gradientUnits="userSpaceOnUse" gradientTransform="matrix(375.99903 -3.00002 1.49684 187.60303 424.001 217)"><stop offset=".449" stop-color="#00CDE3"/><stop offset="1" stop-color="#00CDE3" stop-opacity="0"/></radialGradient><radialGradient id="w" cx="0" cy="0" r="1" gradientUnits="userSpaceOnUse" gradientTransform="matrix(375.99903 -3.00002 1.49684 187.60303 424.001 217)"><stop offset=".449" stop-color="#00CDE3"/><stop offset="1" stop-color="#00CDE3" stop-opacity="0"/></radialGradient><radialGradient id="x" cx="0" cy="0" r="1" gradientUnits="userSpaceOnUse" gradientTransform="matrix(375.99903 -3.00002 1.49684 187.60303 424.001 217)"><stop offset=".449" stop-color="#00CDE3"/><stop offset="1" stop-color="#00CDE3" stop-opacity="0"/></radialGradient><radialGradient id="y" cx="0" cy="0" r="1" gradientUnits="userSpaceOnUse" gradientTransform="matrix(375.99903 -3.00002 1.49684 187.60303 424.001 217)"><stop offset=".449" stop-color="#00CDE3"/><stop offset="1" stop-color="#00CDE3" stop-opacity="0"/></radialGradient><radialGradient id="z" cx="0" cy="0" r="1" gradientUnits="userSpaceOnUse" gradientTransform="matrix(375.99903 -3.00002 1.49684 187.60303 424.001 217)"><stop offset=".449" stop-color="#00CDE3"/><stop offset="1" stop-color="#00CDE3" stop-opacity="0"/></radialGradient><radialGradient id="A" cx="0" cy="0" r="1" gradientUnits="userSpaceOnUse" gradientTransform="matrix(375.99903 -3.00002 1.49684 187.60303 424.001 217)"><stop offset=".449" stop-color="#00CDE3"/><stop offset="1" stop-color="#00CDE3" stop-opacity="0"/></radialGradient><radialGradient id="B" cx="0" cy="0" r="1" gradientUnits="userSpaceOnUse" gradientTransform="matrix(375.99903 -3.00002 1.49684 187.60303 424.001 217)"><stop offset=".449" stop-color="#00CDE3"/><stop offset="1" stop-color="#00CDE3" stop-opacity="0"/></radialGradient><radialGradient id="C" cx="0" cy="0" r="1" gradientUnits="userSpaceOnUse" gradientTransform="matrix(375.99903 -3.00002 1.49684 187.60303 424.001 217)"><stop offset=".449" stop-color="#00CDE3"/><stop offset="1" stop-color="#00CDE3" stop-opacity="0"/></radialGradient><radialGradient id="D" cx="0" cy="0" r="1" gradientUnits="userSpaceOnUse" gradientTransform="matrix(375.99903 -3.00002 1.49684 187.60303 424.001 217)"><stop offset=".449" stop-color="#00CDE3"/><stop offset="1" stop-color="#00CDE3" stop-opacity="0"/></radialGradient><radialGradient id="E" cx="0" cy="0" r="1" gradientUnits="userSpaceOnUse" gradientTransform="matrix(375.99903 -3.00002 1.49684 187.60303 424.001 217)"><stop offset=".449" stop-color="#00CDE3"/><stop offset="1" stop-color="#00CDE3" stop-opacity="0"/></radialGradient><radialGradient id="F" cx="0" cy="0" r="1" gradientUnits="userSpaceOnUse" gradientTransform="matrix(375.99903 -3.00002 1.49684 187.60303 424.001 217)"><stop offset=".449" stop-color="#00CDE3"/><stop offset="1" stop-color="#00CDE3" stop-opacity="0"/></radialGradient><radialGradient id="G" cx="0" cy="0" r="1" gradientUnits="userSpaceOnUse" gradientTransform="matrix(375.99903 -3.00002 1.49684 187.60303 424.001 217)"><stop offset=".449" stop-color="#00CDE3"/><stop offset="1" stop-color="#00CDE3" stop-opacity="0"/></radialGradient><radialGradient id="H" cx="0" cy="0" r="1" gradientUnits="userSpaceOnUse" gradientTransform="matrix(375.99903 -3.00002 1.49684 187.60303 424.001 217)"><stop offset=".449" stop-color="#00CDE3"/><stop offset="1" stop-color="#00CDE3" stop-opacity="0"/></radialGradient><radialGradient id="I" cx="0" cy="0" r="1" gradientUnits="userSpaceOnUse" gradientTransform="matrix(375.99903 -3.00002 1.49684 187.60303 424.001 217)"><stop offset=".449" stop-color="#00CDE3"/><stop offset="1" stop-color="#00CDE3" stop-opacity="0"/></radialGradient><radialGradient id="J" cx="0" cy="0" r="1" gradientUnits="userSpaceOnUse" gradientTransform="matrix(375.99903 -3.00002 1.49684 187.60303 424.001 217)"><stop offset=".449" stop-color="#00CDE3"/><stop offset="1" stop-color="#00CDE3" stop-opacity="0"/></radialGradient><radialGradient id="K" cx="0" cy="0" r="1" gradientUnits="userSpaceOnUse" gradientTransform="matrix(375.99903 -3.00002 1.49684 187.60303 424.001 217)"><stop offset=".449" stop-color="#00CDE3"/><stop offset="1" stop-color="#00CDE3" stop-opacity="0"/></radialGradient><radialGradient id="L" cx="0" cy="0" r="1" gradientUnits="userSpaceOnUse" gradientTransform="matrix(375.99903 -3.00002 1.49684 187.60303 424.001 217)"><stop offset=".449" stop-color="#00CDE3"/><stop offset="1" stop-color="#00CDE3" stop-opacity="0"/></radialGradient><radialGradient id="M" cx="0" cy="0" r="1" gradientUnits="userSpaceOnUse" gradientTransform="matrix(375.99903 -3.00002 1.49684 187.60303 424.001 217)"><stop offset=".449" stop-color="#00CDE3"/><stop offset="1" stop-color="#00CDE3" stop-opacity="0"/></radialGradient><radialGradient id="N" cx="0" cy="0" r="1" gradientUnits="userSpaceOnUse" gradientTransform="matrix(375.99903 -3.00002 1.49684 187.60303 424.001 217)"><stop offset=".449" stop-color="#00CDE3"/><stop offset="1" stop-color="#00CDE3" stop-opacity="0"/></radialGradient><radialGradient id="O" cx="0" cy="0" r="1" gradientTransform="matrix(147.993 -74.8529 -256.192 -126.667 401.005 209.293)" gradientUnits="userSpaceOnUse"><stop offset=".449" stop-color="#00A1B3"/><stop offset="1" stop-color="#00A1B3" stop-opacity=".25"/></radialGradient><radialGradient id="P" cx="0" cy="0" r="1" gradientTransform="matrix(147.993 -74.8529 -256.192 -126.667 401.005 209.293)" gradientUnits="userSpaceOnUse"><stop offset=".449" stop-color="#00A1B3"/><stop offset="1" stop-color="#00A1B3" stop-opacity=".25"/></radialGradient><radialGradient id="Q" cx="0" cy="0" r="1" gradientTransform="matrix(147.993 -74.8529 -256.192 -126.667 401.005 209.293)" gradientUnits="userSpaceOnUse"><stop offset=".449" stop-color="#00A1B3"/><stop offset="1" stop-color="#00A1B3" stop-opacity=".25"/></radialGradient><radialGradient id="R" cx="0" cy="0" r="1" gradientTransform="matrix(147.993 -74.8529 -256.192 -126.667 401.005 209.293)" gradientUnits="userSpaceOnUse"><stop offset=".449" stop-color="#00A1B3"/><stop offset="1" stop-color="#00A1B3" stop-opacity=".25"/></radialGradient><radialGradient id="S" cx="0" cy="0" r="1" gradientTransform="matrix(147.993 -74.8529 -256.192 -126.667 401.005 209.293)" gradientUnits="userSpaceOnUse"><stop offset=".449" stop-color="#00A1B3"/><stop offset="1" stop-color="#00A1B3" stop-opacity=".25"/></radialGradient><radialGradient id="T" cx="0" cy="0" r="1" gradientTransform="matrix(147.993 -74.8529 -256.192 -126.667 401.005 209.293)" gradientUnits="userSpaceOnUse"><stop offset=".449" stop-color="#00A1B3"/><stop offset="1" stop-color="#00A1B3" stop-opacity=".25"/></radialGradient><radialGradient id="U" cx="0" cy="0" r="1" gradientTransform="matrix(147.993 -74.8529 -256.192 -126.667 401.005 209.293)" gradientUnits="userSpaceOnUse"><stop offset=".449" stop-color="#00A1B3"/><stop offset="1" stop-color="#00A1B3" stop-opacity=".25"/></radialGradient><radialGradient id="V" cx="0" cy="0" r="1" gradientTransform="matrix(147.993 -74.8529 -256.192 -126.667 401.005 209.293)" gradientUnits="userSpaceOnUse"><stop offset=".449" stop-color="#00A1B3"/><stop offset="1" stop-color="#00A1B3" stop-opacity=".25"/></radialGradient><radialGradient id="W" cx="0" cy="0" r="1" gradientTransform="matrix(147.993 -74.8529 -256.192 -126.667 401.005 209.293)" gradientUnits="userSpaceOnUse"><stop offset=".449" stop-color="#00A1B3"/><stop offset="1" stop-color="#00A1B3" stop-opacity=".25"/></radialGradient><radialGradient id="X" cx="0" cy="0" r="1" gradientTransform="matrix(147.993 -74.8529 -256.192 -126.667 401.005 209.293)" gradientUnits="userSpaceOnUse"><stop offset=".449" stop-color="#00A1B3"/><stop offset="1" stop-color="#00A1B3" stop-opacity=".25"/></radialGradient><radialGradient id="Y" cx="0" cy="0" r="1" gradientTransform="matrix(147.993 -74.8529 -256.192 -126.667 401.005 209.293)" gradientUnits="userSpaceOnUse"><stop offset=".449" stop-color="#00A1B3"/><stop offset="1" stop-color="#00A1B3" stop-opacity=".25"/></radialGradient><radialGradient id="Z" cx="0" cy="0" r="1" gradientTransform="matrix(147.993 -74.8529 -256.192 -126.667 401.005 209.293)" gradientUnits="userSpaceOnUse"><stop offset=".449" stop-color="#00A1B3"/><stop offset="1" stop-color="#00A1B3" stop-opacity=".25"/></radialGradient><radialGradient id="aa" cx="0" cy="0" r="1" gradientTransform="matrix(147.993 -74.8529 -256.192 -126.667 401.005 209.293)" gradientUnits="userSpaceOnUse"><stop offset=".449" stop-color="#00A1B3"/><stop offset="1" stop-color="#00A1B3" stop-opacity=".25"/></radialGradient><radialGradient id="ab" cx="0" cy="0" r="1" gradientTransform="matrix(147.993 -74.8529 -256.192 -126.667 401.005 209.293)" gradientUnits="userSpaceOnUse"><stop offset=".449" stop-color="#00A1B3"/><stop offset="1" stop-color="#00A1B3" stop-opacity=".25"/></radialGradient><radialGradient id="ac" cx="0" cy="0" r="1" gradientTransform="matrix(147.993 -74.8529 -256.192 -126.667 401.005 209.293)" gradientUnits="userSpaceOnUse"><stop offset=".449" stop-color="#00A1B3"/><stop offset="1" stop-color="#00A1B3" stop-opacity=".25"/></radialGradient><radialGradient id="ad" cx="0" cy="0" r="1" gradientTransform="matrix(147.993 -74.8529 -256.192 -126.667 401.005 209.293)" gradientUnits="userSpaceOnUse"><stop offset=".449" stop-color="#00A1B3"/><stop offset="1" stop-color="#00A1B3" stop-opacity=".25"/></radialGradient><radialGradient id="ae" cx="0" cy="0" r="1" gradientTransform="matrix(147.993 -74.8529 -256.192 -126.667 401.005 209.293)" gradientUnits="userSpaceOnUse"><stop offset=".449" stop-color="#00A1B3"/><stop offset="1" stop-color="#00A1B3" stop-opacity=".25"/></radialGradient><radialGradient id="af" cx="0" cy="0" r="1" gradientTransform="matrix(147.993 -74.8529 -256.192 -126.667 401.005 209.293)" gradientUnits="userSpaceOnUse"><stop offset=".449" stop-color="#00A1B3"/><stop offset="1" stop-color="#00A1B3" stop-opacity=".25"/></radialGradient><radialGradient id="ag" cx="0" cy="0" r="1" gradientTransform="matrix(147.993 -74.8529 -256.192 -126.667 401.005 209.293)" gradientUnits="userSpaceOnUse"><stop offset=".449" stop-color="#00A1B3"/><stop offset="1" stop-color="#00A1B3" stop-opacity=".25"/></radialGradient><radialGradient id="ah" cx="0" cy="0" r="1" gradientTransform="matrix(147.993 -74.8529 -256.192 -126.667 401.005 209.293)" gradientUnits="userSpaceOnUse"><stop offset=".449" stop-color="#00A1B3"/><stop offset="1" stop-color="#00A1B3" stop-opacity=".25"/></radialGradient><radialGradient id="ai" cx="0" cy="0" r="1" gradientTransform="matrix(147.993 -74.8529 -256.192 -126.667 401.005 209.293)" gradientUnits="userSpaceOnUse"><stop offset=".449" stop-color="#00A1B3"/><stop offset="1" stop-color="#00A1B3" stop-opacity=".25"/></radialGradient><radialGradient id="aj" cx="0" cy="0" r="1" gradientTransform="matrix(147.993 -74.8529 -256.192 -126.667 401.005 209.293)" gradientUnits="userSpaceOnUse"><stop offset=".449" stop-color="#00A1B3"/><stop offset="1" stop-color="#00A1B3" stop-opacity=".25"/></radialGradient><radialGradient id="ak" cx="0" cy="0" r="1" gradientTransform="matrix(147.993 -74.8529 -256.192 -126.667 401.005 209.293)" gradientUnits="userSpaceOnUse"><stop offset=".449" stop-color="#00A1B3"/><stop offset="1" stop-color="#00A1B3" stop-opacity=".25"/></radialGradient><radialGradient id="al" cx="0" cy="0" r="1" gradientTransform="matrix(147.993 -74.8529 -256.192 -126.667 401.005 209.293)" gradientUnits="userSpaceOnUse"><stop offset=".449" stop-color="#00A1B3"/><stop offset="1" stop-color="#00A1B3" stop-opacity=".25"/></radialGradient><radialGradient id="am" cx="0" cy="0" r="1" gradientTransform="matrix(147.993 -74.8529 -256.192 -126.667 401.005 209.293)" gradientUnits="userSpaceOnUse"><stop offset=".449" stop-color="#00A1B3"/><stop offset="1" stop-color="#00A1B3" stop-opacity=".25"/></radialGradient><radialGradient id="an" cx="0" cy="0" r="1" gradientTransform="matrix(147.993 -74.8529 -256.192 -126.667 401.005 209.293)" gradientUnits="userSpaceOnUse"><stop offset=".449" stop-color="#00A1B3"/><stop offset="1" stop-color="#00A1B3" stop-opacity=".25"/></radialGradient><radialGradient id="ao" cx="0" cy="0" r="1" gradientTransform="matrix(147.993 -74.8529 -256.192 -126.667 401.005 209.293)" gradientUnits="userSpaceOnUse"><stop offset=".449" stop-color="#00A1B3"/><stop offset="1" stop-color="#00A1B3" stop-opacity=".25"/></radialGradient><radialGradient id="ap" cx="0" cy="0" r="1" gradientTransform="matrix(147.993 -74.8529 -256.192 -126.667 401.005 209.293)" gradientUnits="userSpaceOnUse"><stop offset=".449" stop-color="#00A1B3"/><stop offset="1" stop-color="#00A1B3" stop-opacity=".25"/></radialGradient><radialGradient id="aq" cx="0" cy="0" r="1" gradientTransform="matrix(147.993 -74.8529 -256.192 -126.667 401.005 209.293)" gradientUnits="userSpaceOnUse"><stop offset=".449" stop-color="#00A1B3"/><stop offset="1" stop-color="#00A1B3" stop-opacity=".25"/></radialGradient><radialGradient id="ar" cx="0" cy="0" r="1" gradientTransform="matrix(147.993 -74.8529 -256.192 -126.667 401.005 209.293)" gradientUnits="userSpaceOnUse"><stop offset=".449" stop-color="#00A1B3"/><stop offset="1" stop-color="#00A1B3" stop-opacity=".25"/></radialGradient><radialGradient id="as" cx="0" cy="0" r="1" gradientTransform="matrix(147.993 -74.8529 -256.192 -126.667 401.005 209.293)" gradientUnits="userSpaceOnUse"><stop offset=".449" stop-color="#00A1B3"/><stop offset="1" stop-color="#00A1B3" stop-opacity=".25"/></radialGradient><radialGradient id="at" cx="0" cy="0" r="1" gradientTransform="matrix(147.993 -74.8529 -256.192 -126.667 401.005 209.293)" gradientUnits="userSpaceOnUse"><stop offset=".449" stop-color="#00A1B3"/><stop offset="1" stop-color="#00A1B3" stop-opacity=".25"/></radialGradient><radialGradient id="au" cx="0" cy="0" r="1" gradientTransform="matrix(147.993 -74.8529 -256.192 -126.667 401.005 209.293)" gradientUnits="userSpaceOnUse"><stop offset=".449" stop-color="#00A1B3"/><stop offset="1" stop-color="#00A1B3" stop-opacity=".25"/></radialGradient><radialGradient id="av" cx="0" cy="0" r="1" gradientTransform="matrix(147.993 -74.8529 -256.192 -126.667 401.005 209.293)" gradientUnits="userSpaceOnUse"><stop offset=".449" stop-color="#00A1B3"/><stop offset="1" stop-color="#00A1B3" stop-opacity=".25"/></radialGradient><radialGradient id="aw" cx="0" cy="0" r="1" gradientTransform="matrix(147.993 -74.8529 -256.192 -126.667 401.005 209.293)" gradientUnits="userSpaceOnUse"><stop offset=".449" stop-color="#00A1B3"/><stop offset="1" stop-color="#00A1B3" stop-opacity=".25"/></radialGradient><radialGradient id="ax" cx="0" cy="0" r="1" gradientTransform="matrix(147.993 -74.8529 -256.192 -126.667 401.005 209.293)" gradientUnits="userSpaceOnUse"><stop offset=".449" stop-color="#00A1B3"/><stop offset="1" stop-color="#00A1B3" stop-opacity=".25"/></radialGradient><radialGradient id="ay" cx="0" cy="0" r="1" gradientTransform="matrix(147.993 -74.8529 -256.192 -126.667 401.005 209.293)" gradientUnits="userSpaceOnUse"><stop offset=".449" stop-color="#00A1B3"/><stop offset="1" stop-color="#00A1B3" stop-opacity=".25"/></radialGradient><radialGradient id="az" cx="0" cy="0" r="1" gradientTransform="matrix(147.993 -74.8529 -256.192 -126.667 401.005 209.293)" gradientUnits="userSpaceOnUse"><stop offset=".449" stop-color="#00A1B3"/><stop offset="1" stop-color="#00A1B3" stop-opacity=".25"/></radialGradient><radialGradient id="aA" cx="0" cy="0" r="1" gradientTransform="matrix(147.993 -74.8529 -256.192 -126.667 401.005 209.293)" gradientUnits="userSpaceOnUse"><stop offset=".449" stop-color="#00A1B3"/><stop offset="1" stop-color="#00A1B3" stop-opacity=".25"/></radialGradient><radialGradient id="aB" cx="0" cy="0" r="1" gradientTransform="matrix(147.993 -74.8529 -256.192 -126.667 401.005 209.293)" gradientUnits="userSpaceOnUse"><stop offset=".449" stop-color="#00A1B3"/><stop offset="1" stop-color="#00A1B3" stop-opacity=".25"/></radialGradient><radialGradient id="aC" cx="0" cy="0" r="1" gradientTransform="matrix(147.993 -74.8529 -256.192 -126.667 401.005 209.293)" gradientUnits="userSpaceOnUse"><stop offset=".449" stop-color="#00A1B3"/><stop offset="1" stop-color="#00A1B3" stop-opacity=".25"/></radialGradient><radialGradient id="aD" cx="0" cy="0" r="1" gradientTransform="matrix(147.993 -74.8529 -256.192 -126.667 401.005 209.293)" gradientUnits="userSpaceOnUse"><stop offset=".449" stop-color="#00A1B3"/><stop offset="1" stop-color="#00A1B3" stop-opacity=".25"/></radialGradient><radialGradient id="aE" cx="0" cy="0" r="1" gradientTransform="matrix(147.993 -74.8529 -256.192 -126.667 401.005 209.293)" gradientUnits="userSpaceOnUse"><stop offset=".449" stop-color="#00A1B3"/><stop offset="1" stop-color="#00A1B3" stop-opacity=".25"/></radialGradient><radialGradient id="aF" cx="0" cy="0" r="1" gradientTransform="matrix(147.993 -74.8529 -256.192 -126.667 401.005 209.293)" gradientUnits="userSpaceOnUse"><stop offset=".449" stop-color="#00A1B3"/><stop offset="1" stop-color="#00A1B3" stop-opacity=".25"/></radialGradient><radialGradient id="aG" cx="0" cy="0" r="1" gradientTransform="matrix(147.993 -74.8529 -256.192 -126.667 401.005 209.293)" gradientUnits="userSpaceOnUse"><stop offset=".449" stop-color="#00A1B3"/><stop offset="1" stop-color="#00A1B3" stop-opacity=".25"/></radialGradient><radialGradient id="aH" cx="0" cy="0" r="1" gradientTransform="matrix(147.993 -74.8529 -256.192 -126.667 401.005 209.293)" gradientUnits="userSpaceOnUse"><stop offset=".449" stop-color="#00A1B3"/><stop offset="1" stop-color="#00A1B3" stop-opacity=".25"/></radialGradient><radialGradient id="aI" cx="0" cy="0" r="1" gradientTransform="matrix(147.993 -74.8529 -256.192 -126.667 401.005 209.293)" gradientUnits="userSpaceOnUse"><stop offset=".449" stop-color="#00A1B3"/><stop offset="1" stop-color="#00A1B3" stop-opacity=".25"/></radialGradient><radialGradient id="aJ" cx="0" cy="0" r="1" gradientTransform="matrix(147.993 -74.8529 -256.192 -126.667 401.005 209.293)" gradientUnits="userSpaceOnUse"><stop offset=".449" stop-color="#00A1B3"/><stop offset="1" stop-color="#00A1B3" stop-opacity=".25"/></radialGradient><radialGradient id="aK" cx="0" cy="0" r="1" gradientTransform="matrix(147.993 -74.8529 -256.192 -126.667 401.005 209.293)" gradientUnits="userSpaceOnUse"><stop offset=".449" stop-color="#00A1B3"/><stop offset="1" stop-color="#00A1B3" stop-opacity=".25"/></radialGradient><radialGradient id="aL" cx="0" cy="0" r="1" gradientTransform="matrix(147.993 -74.8529 -256.192 -126.667 401.005 209.293)" gradientUnits="userSpaceOnUse"><stop offset=".449" stop-color="#00A1B3"/><stop offset="1" stop-color="#00A1B3" stop-opacity=".25"/></radialGradient><radialGradient id="aM" cx="0" cy="0" r="1" gradientTransform="matrix(147.993 -74.8529 -256.192 -126.667 401.005 209.293)" gradientUnits="userSpaceOnUse"><stop offset=".449" stop-color="#00A1B3"/><stop offset="1" stop-color="#00A1B3" stop-opacity=".25"/></radialGradient><radialGradient id="aN" cx="0" cy="0" r="1" gradientTransform="matrix(147.993 -74.8529 -256.192 -126.667 401.005 209.293)" gradientUnits="userSpaceOnUse"><stop offset=".449" stop-color="#00A1B3"/><stop offset="1" stop-color="#00A1B3" stop-opacity=".25"/></radialGradient><radialGradient id="aO" cx="0" cy="0" r="1" gradientTransform="matrix(147.993 -74.8529 -256.192 -126.667 401.005 209.293)" gradientUnits="userSpaceOnUse"><stop offset=".449" stop-color="#00A1B3"/><stop offset="1" stop-color="#00A1B3" stop-opacity=".25"/></radialGradient><radialGradient id="aP" cx="0" cy="0" r="1" gradientTransform="matrix(147.993 -74.8529 -256.192 -126.667 401.005 209.293)" gradientUnits="userSpaceOnUse"><stop offset=".449" stop-color="#00A1B3"/><stop offset="1" stop-color="#00A1B3" stop-opacity=".25"/></radialGradient><radialGradient id="aQ" cx="0" cy="0" r="1" gradientTransform="matrix(147.993 -74.8529 -256.192 -126.667 401.005 209.293)" gradientUnits="userSpaceOnUse"><stop offset=".449" stop-color="#00A1B3"/><stop offset="1" stop-color="#00A1B3" stop-opacity=".25"/></radialGradient><radialGradient id="aR" cx="0" cy="0" r="1" gradientTransform="matrix(147.993 -74.8529 -256.192 -126.667 401.005 209.293)" gradientUnits="userSpaceOnUse"><stop offset=".449" stop-color="#00A1B3"/><stop offset="1" stop-color="#00A1B3" stop-opacity=".25"/></radialGradient><radialGradient id="aS" cx="0" cy="0" r="1" gradientTransform="matrix(147.993 -74.8529 -256.192 -126.667 401.005 209.293)" gradientUnits="userSpaceOnUse"><stop offset=".449" stop-color="#00A1B3"/><stop offset="1" stop-color="#00A1B3" stop-opacity=".25"/></radialGradient><radialGradient id="aT" cx="0" cy="0" r="1" gradientTransform="matrix(147.993 -74.8529 -256.192 -126.667 401.005 209.293)" gradientUnits="userSpaceOnUse"><stop offset=".449" stop-color="#00A1B3"/><stop offset="1" stop-color="#00A1B3" stop-opacity=".25"/></radialGradient><radialGradient id="aU" cx="0" cy="0" r="1" gradientTransform="matrix(147.993 -74.8529 -256.192 -126.667 401.005 209.293)" gradientUnits="userSpaceOnUse"><stop offset=".449" stop-color="#00A1B3"/><stop offset="1" stop-color="#00A1B3" stop-opacity=".25"/></radialGradient><radialGradient id="aV" cx="0" cy="0" r="1" gradientTransform="matrix(147.993 -74.8529 -256.192 -126.667 401.005 209.293)" gradientUnits="userSpaceOnUse"><stop offset=".449" stop-color="#00A1B3"/><stop offset="1" stop-color="#00A1B3" stop-opacity=".25"/></radialGradient><radialGradient id="aW" cx="0" cy="0" r="1" gradientTransform="matrix(147.993 -74.8529 -256.192 -126.667 401.005 209.293)" gradientUnits="userSpaceOnUse"><stop offset=".449" stop-color="#00A1B3"/><stop offset="1" stop-color="#00A1B3" stop-opacity=".25"/></radialGradient><radialGradient id="aX" cx="0" cy="0" r="1" gradientTransform="matrix(147.993 -74.8529 -256.192 -126.667 401.005 209.293)" gradientUnits="userSpaceOnUse"><stop offset=".449" stop-color="#00A1B3"/><stop offset="1" stop-color="#00A1B3" stop-opacity=".25"/></radialGradient><radialGradient id="aY" cx="0" cy="0" r="1" gradientTransform="matrix(147.993 -74.8529 -256.192 -126.667 401.005 209.293)" gradientUnits="userSpaceOnUse"><stop offset=".449" stop-color="#00A1B3"/><stop offset="1" stop-color="#00A1B3" stop-opacity=".25"/></radialGradient><radialGradient id="aZ" cx="0" cy="0" r="1" gradientTransform="matrix(147.993 -74.8529 -256.192 -126.667 401.005 209.293)" gradientUnits="userSpaceOnUse"><stop offset=".449" stop-color="#00A1B3"/><stop offset="1" stop-color="#00A1B3" stop-opacity=".25"/></radialGradient><radialGradient id="ba" cx="0" cy="0" r="1" gradientTransform="matrix(147.993 -74.8529 -256.192 -126.667 401.005 209.293)" gradientUnits="userSpaceOnUse"><stop offset=".449" stop-color="#00A1B3"/><stop offset="1" stop-color="#00A1B3" stop-opacity=".25"/></radialGradient><radialGradient id="bb" cx="0" cy="0" r="1" gradientTransform="matrix(147.993 -74.8529 -256.192 -126.667 401.005 209.293)" gradientUnits="userSpaceOnUse"><stop offset=".449" stop-color="#00A1B3"/><stop offset="1" stop-color="#00A1B3" stop-opacity=".25"/></radialGradient><radialGradient id="bc" cx="0" cy="0" r="1" gradientTransform="matrix(147.993 -74.8529 -256.192 -126.667 401.005 209.293)" gradientUnits="userSpaceOnUse"><stop offset=".449" stop-color="#00A1B3"/><stop offset="1" stop-color="#00A1B3" stop-opacity=".25"/></radialGradient><radialGradient id="bd" cx="0" cy="0" r="1" gradientTransform="matrix(147.993 -74.8529 -256.192 -126.667 401.005 209.293)" gradientUnits="userSpaceOnUse"><stop offset=".449" stop-color="#00A1B3"/><stop offset="1" stop-color="#00A1B3" stop-opacity=".25"/></radialGradient><radialGradient id="be" cx="0" cy="0" r="1" gradientTransform="matrix(147.993 -74.8529 -256.192 -126.667 401.005 209.293)" gradientUnits="userSpaceOnUse"><stop offset=".449" stop-color="#00A1B3"/><stop offset="1" stop-color="#00A1B3" stop-opacity=".25"/></radialGradient><radialGradient id="bf" cx="0" cy="0" r="1" gradientTransform="matrix(147.993 -74.8529 -256.192 -126.667 401.005 209.293)" gradientUnits="userSpaceOnUse"><stop offset=".449" stop-color="#00A1B3"/><stop offset="1" stop-color="#00A1B3" stop-opacity=".25"/></radialGradient><radialGradient id="bg" cx="0" cy="0" r="1" gradientTransform="matrix(147.993 -74.8529 -256.192 -126.667 401.005 209.293)" gradientUnits="userSpaceOnUse"><stop offset=".449" stop-color="#00A1B3"/><stop offset="1" stop-color="#00A1B3" stop-opacity=".25"/></radialGradient><radialGradient id="bh" cx="0" cy="0" r="1" gradientTransform="matrix(147.993 -74.8529 -256.192 -126.667 401.005 209.293)" gradientUnits="userSpaceOnUse"><stop offset=".449" stop-color="#00A1B3"/><stop offset="1" stop-color="#00A1B3" stop-opacity=".25"/></radialGradient><radialGradient id="bi" cx="0" cy="0" r="1" gradientTransform="matrix(147.993 -74.8529 -256.192 -126.667 401.005 209.293)" gradientUnits="userSpaceOnUse"><stop offset=".449" stop-color="#00A1B3"/><stop offset="1" stop-color="#00A1B3" stop-opacity=".25"/></radialGradient><linearGradient id="bl" x1="562" y1="213" x2="433.5" y2="213" gradientUnits="userSpaceOnUse"><stop stop-color="#132433" stop-opacity=".05"/><stop offset="1" stop-color="#132433" stop-opacity=".15"/></linearGradient><linearGradient id="bm" x1="531.021" y1="213.93" x2="269.021" y2="213.93" gradientUnits="userSpaceOnUse"><stop stop-color="#00A4B6"/><stop offset=".43" stop-color="#00A4B6"/><stop offset=".573" stop-color="#31DDEF"/><stop offset="1" stop-color="#31DDEF"/></linearGradient><linearGradient id="bn" x1="400.276" y1="252.295" x2="400.276" y2="121" gradientUnits="userSpaceOnUse"><stop stop-color="#00CDE3"/><stop offset="1" stop-color="#67E4F1"/></linearGradient><linearGradient id="bo" x1="383.5" y1="245.5" x2="417.5" y2="245.5" gradientUnits="userSpaceOnUse"><stop stop-color="#67E3F0"/><stop offset="1" stop-color="#0E98A7"/></linearGradient><linearGradient id="bp" x1="518.758" y1="190.304" x2="399.01" y2="190.304" gradientUnits="userSpaceOnUse"><stop offset=".427" stop-color="#67E4F1"/><stop offset=".57" stop-color="#00B7CA"/></linearGradient><linearGradient id="bq" x1="459" y1="216" x2="459" y2="160" gradientUnits="userSpaceOnUse"><stop stop-color="#00B7CA"/><stop offset="1" stop-color="#00CDE3"/></linearGradient><filter id="bj" x="239" y="117" width="322.552" height="191.295" filterUnits="userSpaceOnUse" color-interpolation-filters="sRGB"><feFlood flood-opacity="0" result="BackgroundImageFix"/><feBlend in="SourceGraphic" in2="BackgroundImageFix" result="shape"/><feGaussianBlur stdDeviation="15" result="effect1_foregroundBlur_5769_3188"/></filter><filter id="bk" x="297" y="145" width="266.552" height="135.295" filterUnits="userSpaceOnUse" color-interpolation-filters="sRGB"><feFlood flood-opacity="0" result="BackgroundImageFix"/><feBlend in="SourceGraphic" in2="BackgroundImageFix" result="shape"/><feGaussianBlur stdDeviation="1" result="effect1_foregroundBlur_5769_3188"/></filter><filter id="br" x="418" y="169" width="82" height="40" filterUnits="userSpaceOnUse" color-interpolation-filters="sRGB"><feFlood flood-opacity="0" result="BackgroundImageFix"/><feBlend in="SourceGraphic" in2="BackgroundImageFix" result="shape"/><feGaussianBlur stdDeviation="2" result="effect1_foregroundBlur_5769_3188"/></filter></defs></svg>