<svg xmlns="http://www.w3.org/2000/svg" width="310" height="357" fill="none"><path fill="#fff" d="M0 0h248v356.5H0z"/><path fill="#d1d8e4" fill-rule="evenodd" d="M246.45 1.55H1.55v353.4h244.9zM0 0v356.5h248V0z" clip-rule="evenodd"/><path fill="#4d8fe3" d="M174.375 321.625h69.75v31h-69.75zM3.875 3.875h240.25v69.75H3.875z"/><path fill="#aeb4b2" d="M166.625 240.25h77.5v77.5h-77.5z"/><path fill="#363928" d="M166.625 272.781v44.969h77.5v-55.972c-.532.106-1.85.063-2.87-.957-1.276-1.276-1.754-5.262-6.698-5.103-4.943.159-4.305 10.365-6.379 10.684s-1.754-6.378-8.451-6.059-5.741 16.265-8.292 16.265-6.379.319-11.801.478c-5.422.16-3.189-15.627-8.77-15.468-5.582.16-2.871 14.99-4.465 14.99-1.595 0-1.754-3.03-3.509-3.03s-2.87 4.146-3.827 4.306c-.957.159-1.435-2.552-2.232-2.552s-1.595.319-2.073 2.392c-.479 2.073-2.233 1.595-3.509-1.594s-1.754.159-2.073 2.551-.797 0-1.116-2.87c-.255-2.297-1.063-2.977-1.435-3.03"/><path fill="#6e6254" d="M203.94 279c-18.881 1.659-32.744 3.455-37.315 4.146v34.604h77.5v-41.939c-5.528.372-21.305 1.531-40.185 3.189"/><path fill="#635344" d="M203.94 280.915c-18.881 1.577-32.744 3.285-37.315 3.942v32.893h77.5v-39.866c-5.528.353-21.305 1.455-40.185 3.031"/><path fill="#706a5e" d="M205.216 296.062c-21.209 0-38.591.636-38.591.636v21.052h77.5v-21.052s-20.002-.635-38.909-.636"/><path fill="#544b42" d="M206.013 299.794c-21.201-.592-39.388 0-39.388 0v17.956h77.5v-16.042s-17.541-1.34-38.112-1.914"/><path fill="#605752" d="M206.013 300.776c-21.201-.559-39.388 0-39.388 0v16.974h77.5v-15.165s-17.541-1.266-38.112-1.809"/><path fill="#716e60" d="M206.013 311.69c-21.528-1.913-39.388-2.741-39.388-2.741v8.801h77.5v-1.485s-17.62-2.753-38.112-4.575"/><path fill="#bcc0c3" d="M85.25 240.25h77.5v77.5h-77.5z"/><path fill="#565044" d="m120.463 292.147 42.287 9.338V286.19c-.636.536-2.098 1.61-2.862 1.61-.953 0-1.748-2.093-5.564-2.254s-5.087 2.254-7.312 3.542-6.995 0-9.698-1.288-6.2 1.288-8.108 2.576c-1.907 1.288-2.702-1.288-6.2-1.288-2.798 0-2.861 2.039-2.543 3.059"/><path fill="#8c837e" d="m120.492 292.076 42.258 9.409v16.265h-77.5v-25.674z"/><path fill="#574d42" d="m85.25 312.807 28.704-20.731v-2.073c-1.223-.159-4.051-.542-5.582-.797-1.913-.319-1.913.319-4.943.797s-4.624-.797-6.698-1.595c-2.073-.797-4.783 1.595-6.856 1.914-1.659.255-3.775-.638-4.625-1.116z"/><path fill="#a3b3ca" d="M3.875 240.25h77.5v77.5h-77.5z"/><path fill="#56584d" d="M34.014 286.654h47.36v-21.209l-43.852.319-3.508 4.625z"/><path fill="#a59587" d="m81.375 290.162-77.5 2.711v-6.219l77.5-2.073z"/><path fill="#85765f" d="m81.375 290.163-77.5 2.711v24.876h77.5z"/><path fill="#aaa498" d="m48.366 312.488 5.422-.479-4.784-4.465-4.306.319zm-12.758.638 5.582-.319-1.595-4.784-5.103.159zm-12.757.478h5.582v-4.943H23.33zm-12.279.16h5.582l.638-4.625h-4.465zm-3.348-4.784H3.875v4.465z"/><path fill="#ad957b" d="M67.342 301.325c5.118-.33 11.481-.957 14.033-1.117v17.542H67.183c-.373-.266-2.68-1.978-8.93-6.698-7.814-5.9-.798-9.089 9.089-9.727"/><path fill="#92843e" d="M62.08 311.69c.638.638 5.262 4.306 7.495 6.06h11.8v-10.844a6955 6955 0 0 1-16.584 2.552c-3.19.478-3.509 1.435-2.711 2.232"/><path fill="#625f38" d="M10.572 289.206c-3.444 1.021-5.9.851-6.697.638v-18.339c1.967-.053 6.506.351 8.93 2.392s3.03 6.166 3.03 7.974c.744-.585 2.679-1.818 4.465-2.073 1.786-.256 3.72-.107 4.465 0 .212-1.117 1.467-3.222 4.784-2.711 3.317.51 2.977 4.252 2.392 6.059 1.01-.319 3.285-.637 4.305.638 1.02 1.276 1.063 2.977.957 3.668H19.024c-2.232 0-4.146.478-8.452 1.754"/><path fill="#828689" d="M85.25 77.5h77.5V155h-77.5z"/><path fill="#676a72" d="M136.438 114.815 85.25 150.854V155h77.5v-51.985h-9.408l-13.077 8.93h-15.627v2.87z"/><path fill="#999288" d="M124.638 77.5v38.112L85.25 135.386V77.5z"/><path fill="#87827c" d="M135.322 110.988h-10.684V77.5h24.876v25.514z"/><path fill="#9f9890" d="M149.514 101.26V77.5h13.236v23.76z"/><path fill="#d9d9d9" d="M149.036 148.781h9.887l.638-11.323h-6.857zm-20.093 0h9.887l6.379-11.323h-7.495zm-17.86 0h8.611l10.525-11.323h-6.857zm-16.903 0h7.973l14.352-11.323h-6.538z"/><path fill="#bfc9ca" d="M166.625 77.5h77.5V155h-77.5z"/><path fill="#856953" d="M166.625 155v-19.615l12.598-26.311h13.076l51.826 6.219V155z"/><path fill="#977f55" d="M244.125 93.925v21.369l-51.667-6.22c0-1.328.415-4.114 2.073-4.624 2.073-.638 2.711 1.435 4.625 1.276 1.913-.16 1.913-2.073 5.581-2.552 3.668-.478 3.987 1.276 6.698 1.276 2.71 0 1.913-1.754 6.059-2.392s5.582 3.03 8.133 3.03 2.87-2.552 5.581-3.03 4.306 1.754 5.741 1.116.957-3.508 2.232-6.219c1.021-2.169 3.721-2.923 4.944-3.03"/><path fill="#b59d85" d="M176.352 109.074h2.871l-12.598 26.311v-22.963z"/><path fill="#6e5d3a" d="M166.625 102.695v9.728l9.727-3.349h16.106l1.914.16c-.213-.691-.797-2.169-1.435-2.552-.798-.478-1.435-.319-2.871.319s-2.392-1.435-4.146-1.914-1.754.957-3.03.957-2.71-1.435-4.465-2.073-2.255.167-3.667.638c-.957.319-2.871 0-4.306-1.276-1.148-1.02-3.03-.85-3.827-.638"/><path fill="#888b90" d="M3.875 77.5h77.5V155h-77.5z"/><path fill="#bdbeb8" d="m3.875 90.257 77.5 13.555V81.327l-11.96 3.987L23.49 77.5H3.875z"/><path fill="#edf1f4" d="m45.495 98.55 35.88 6.218v2.871l-43.056-7.973 7.176-1.117zm-14.352 2.232 50.232 8.451v3.668l-59.002-10.684zm-17.541 3.189 67.773 11.801v3.667L4.832 105.406zm-9.727 4.465 75.108 14.671-7.176 3.03-67.932-13.236zm0 8.93 58.843 11.96-9.409 3.827-49.434-10.365z"/><path fill="#a29f91" d="M69.415 85.314 23.49 77.5h57.886v3.827z"/><path fill="#c3b9b3" d="M22.373 140.17c-4.593-5.613-14.246-7.973-18.498-8.93V155h17.063c2.392-2.605 6.027-9.217 1.435-14.83"/><path fill="#b9bdc0" d="M166.625 158.875h77.5v77.5h-77.5z"/><path fill="#455646" d="M170.452 193.16c-2.679.765-3.668 3.615-3.827 4.943v38.272h77.5v-53.421c-.478-.159-1.85-.446-3.508-.319-2.073.16-3.508 2.392-5.422 2.392s-3.668-3.667-8.133-.319c-4.465 3.349-1.754 8.611-3.667 7.655-1.914-.957-6.539-.798-10.525.478s-1.276-6.538-6.06-8.133-5.422 3.668-6.538 3.828-1.913-1.436-6.06-.638-3.189 4.146-5.102 4.624c-1.914.479-2.552-2.711-7.336-2.551s-3.986 6.697-4.784 7.016-3.189-4.784-6.538-3.827"/><path fill="#5d695e" d="M206.651 196.668c-22.198 1.276-35.933 2.977-40.026 3.668v36.039h77.5v-41.62c-3.242.106-15.277.638-37.474 1.913"/><path fill="#484d46" d="M206.651 197.625c-22.198 1.276-35.933 2.977-40.026 3.668v35.082h77.5v-40.664c-3.242.107-15.277.638-37.474 1.914"/><path fill="#a5a6a1" d="M206.651 201.771c-22.198 1.276-35.933 2.977-40.026 3.668v30.936h77.5v-36.518c-3.242.107-15.277.638-37.474 1.914"/><path fill="#3d423b" d="M205.694 218.993c-22.047 2.883-39.069 5.9-39.069 5.9v11.482h77.5v-21.528s-17.701 1.435-38.431 4.146"/><path fill="#938a7f" d="M226.743 231.91c-9.823 1.658-20.358 3.668-24.398 4.465h41.78v-7.017c-1.701.16-7.559.893-17.382 2.552"/><path fill="#a5a6a1" d="M238.065 216.761c3.317-.383 5.422-.585 6.06-.638v3.508c-.585.053-2.87.224-5.422.479s-5.156.638-6.219.797l-1.276-3.349c.904-.106 3.54-.414 6.857-.797m-22.803 2.711c7.399-.893 12.332-1.329 13.873-1.435v3.189c-3.03.478-6.857 1.021-13.235 1.914-6.379.893-12.332 1.754-14.193 2.073l-1.275-3.828c1.86-.265 7.431-1.02 14.83-1.913m-17.222 6.378v-3.986c-1.329.106-6.251.67-15.309 2.073s-14.511 2.498-16.106 2.87v2.073l1.116 1.914c1.01-.106 5.294-.734 14.352-2.392 9.058-1.659 14.405-2.392 15.947-2.552"/><path fill="#a8b0bb" d="M85.25 158.875h77.5v77.5h-77.5z"/><path fill="#83919a" d="m162.75 197.146-77.5 7.176v32.053h77.5z"/><path fill="#b49c80" d="m162.75 212.455-77.5 7.176v16.744h77.5z"/><path fill="#977e63" d="m162.75 223.299-77.5 7.176v5.9h77.5z"/><path fill="#896e59" d="m162.75 228.083-77.5 7.175v1.117h77.5z"/><path fill="#cacecf" d="M3.875 158.875h77.5v77.5h-77.5z"/><path fill="#73716b" d="m33.695 212.136 47.68.957v23.282h-47.68z"/><path fill="#59574a" d="M14.878 221.385h18.817v14.99H3.875v-13.873l11.003 1.435z"/><path fill="#fff" d="m192.925 341.775-2.988-8.928h1.147l2.598 7.756 2.622-7.756h1.147l-2.988 8.928zm5.459 0v-8.928h5.642v1.047h-4.538v2.797h3.794v1.047h-3.794v2.989h4.538v1.048zm7.132 0v-8.928h3.528q.13 0 .31.012.18.007.347.037.726.112 1.216.496.495.385.744.974.248.582.248 1.295 0 1.036-.54 1.798-.538.757-1.581.949l-.421.068h-2.747v3.299zm5.314 0-1.761-3.634 1.091-.334 1.935 3.968zm-4.21-4.347h2.387q.118 0 .267-.012.155-.013.291-.043.428-.099.694-.36.274-.267.397-.62.124-.36.124-.732c0-.372-.041-.489-.124-.725a1.6 1.6 0 0 0-.397-.626 1.36 1.36 0 0 0-.694-.36 1.3 1.3 0 0 0-.291-.043 3 3 0 0 0-.267-.013h-2.387zm6.964 4.347v-8.928h1.104v8.928zm2.964 0v-8.928h5.208v1.103h-4.104v2.809h3.36v1.103h-3.36v3.913zm8.46 0v-3.714l-3.007-5.214h1.284l2.281 3.949 2.276-3.949h1.283l-3.001 5.214v3.714zM19.44 61.384q-1.013 0-1.72-.448a2.88 2.88 0 0 1-1.078-1.243q-.367-.795-.367-1.841t.367-1.841q.372-.795 1.079-1.243.705-.448 1.718-.448 1.177 0 1.936.598.762.599 1.05 1.61l-.852.227q-.208-.758-.74-1.196t-1.394-.438q-.758 0-1.262.343-.503.345-.758.961-.255.612-.259 1.427-.005.81.25 1.427.255.612.763.96.508.345 1.266.344.863 0 1.394-.438.532-.443.74-1.196l.852.226q-.288 1.008-1.05 1.61-.758.6-1.936.599zm4.112-.142V54.32h.838v6.922zm2.345-5.985v-.866h.838v.866zm0 5.986v-5.086h.838v5.086zm4.393.141q-.771 0-1.313-.344a2.24 2.24 0 0 1-.82-.956 3.34 3.34 0 0 1-.291-1.384q.01-.795.296-1.399.293-.607.834-.946.542-.34 1.304-.34.806 0 1.385.396.584.396.782 1.083l-.83.25a1.36 1.36 0 0 0-.522-.688 1.43 1.43 0 0 0-.824-.245q-.523 0-.862.245-.339.24-.504.669-.164.423-.17.975.01.847.392 1.37.386.518 1.144.518.5 0 .829-.226a1.4 1.4 0 0 0 .499-.664l.848.221q-.264.711-.825 1.088t-1.351.377zm3.133-.142.005-6.78h.847v4.143l2.133-2.448h1.088L35.25 58.7l2.51 2.542h-1.173l-2.312-2.448v2.449h-.852zm8.067 0-1.847-5.085h.848l1.427 4.017 1.422-4.017h.852l-1.846 5.086h-.857zm5.574.142q-.75 0-1.31-.33a2.3 2.3 0 0 1-.866-.928q-.31-.598-.31-1.393 0-.834.305-1.441a2.24 2.24 0 0 1 .853-.942q.55-.334 1.29-.334.767 0 1.304.353.541.353.81 1.007.273.655.236 1.56h-.848v-.302q-.014-.937-.381-1.399-.368-.466-1.093-.466-.777 0-1.182.5-.405.499-.405 1.43 0 .9.405 1.395t1.154.494q.504 0 .876-.23a1.57 1.57 0 0 0 .584-.665l.805.278a2.3 2.3 0 0 1-.895 1.046 2.5 2.5 0 0 1-1.332.367m-1.88-2.449v-.673h3.759v.673zm5.24 2.307v-5.085h.749v1.229l-.122-.16q.09-.236.23-.434.147-.197.325-.324a1.4 1.4 0 0 1 .448-.245q.249-.085.508-.1.26-.017.485.034v.786a1.6 1.6 0 0 0-.579-.037q-.315.032-.584.23-.244.175-.381.424-.133.25-.184.542a3.3 3.3 0 0 0-.052.588v2.553h-.843zm3.608-5.985v-.866h.838v.866zm0 5.986v-5.086h.838v5.086zm2.736-.001V55.88q0-.198.019-.4.018-.208.085-.4.066-.198.216-.363a1 1 0 0 1 .382-.273q.207-.085.419-.104a5 5 0 0 1 .41-.019h.645v.697h-.599q-.372 0-.555.184-.184.18-.184.546v5.495h-.838zm-.862-4.393v-.692h3.038v.692zm4.495 6.654.985-2.675.014.791-2.223-5.462h.88L61.8 60.55h-.3l1.634-4.393h.852l-2.769 7.346zm8.413-2.119q-.757 0-1.309-.344a2.3 2.3 0 0 1-.843-.951q-.296-.608-.296-1.394 0-.801.301-1.403.301-.603.853-.937.551-.34 1.294-.34.764 0 1.314.344.552.34.843.947.297.603.297 1.389 0 .795-.297 1.403-.297.603-.847.947-.552.339-1.31.339m0-.796q.792 0 1.178-.527.386-.528.386-1.366 0-.862-.39-1.37-.391-.514-1.174-.514-.531 0-.875.24t-.514.664a2.6 2.6 0 0 0-.17.98q0 .857.396 1.375t1.163.518m7.112.654v-2.547a3.6 3.6 0 0 0-.066-.697 1.8 1.8 0 0 0-.221-.598 1.14 1.14 0 0 0-.424-.424q-.264-.155-.669-.155-.316 0-.574.108a1.1 1.1 0 0 0-.438.32 1.6 1.6 0 0 0-.287.546 2.7 2.7 0 0 0-.1.768l-.55-.17q0-.739.263-1.266.27-.533.75-.815.484-.287 1.139-.287.494 0 .843.155.348.156.579.415.231.254.362.574.132.316.184.645.057.326.057.617v2.812zm-3.626 0v-5.085h.754v1.36h.094v3.725zm7.794.142q-.771 0-1.313-.344a2.24 2.24 0 0 1-.82-.956 3.35 3.35 0 0 1-.292-1.384q.01-.795.297-1.399.292-.607.834-.946.54-.34 1.304-.34.805 0 1.384.396.585.396.782 1.083l-.829.25a1.36 1.36 0 0 0-.522-.688 1.43 1.43 0 0 0-.825-.245q-.522 0-.861.245-.339.24-.504.669-.164.423-.17.975.01.847.391 1.37.388.518 1.144.518.5 0 .83-.226a1.4 1.4 0 0 0 .498-.664l.848.221q-.264.711-.824 1.088t-1.352.377m5.203 0q-.749 0-1.31-.33a2.3 2.3 0 0 1-.865-.928q-.311-.598-.311-1.393 0-.834.306-1.441.306-.613.852-.942.55-.334 1.29-.334.768 0 1.305.353.54.353.81 1.007.273.655.235 1.56h-.847v-.302q-.015-.937-.382-1.399-.367-.466-1.092-.466-.777 0-1.182.5-.405.499-.405 1.43 0 .9.405 1.395t1.153.494q.504 0 .876-.23a1.57 1.57 0 0 0 .584-.665l.805.278a2.3 2.3 0 0 1-.894 1.046 2.5 2.5 0 0 1-1.333.367m-1.879-2.449v-.673h3.758v.673zm9.965 2.307q-.453.09-.895.071a2 2 0 0 1-.782-.174 1.13 1.13 0 0 1-.523-.509 1.5 1.5 0 0 1-.164-.607q-.01-.31-.01-.702v-4.577h.838v4.54q0 .31.005.532.01.22.1.381a.69.69 0 0 0 .536.353q.372.052.895-.028zm-3.405-4.393v-.692h3.405v.692zm8.058 4.393v-2.547a3.6 3.6 0 0 0-.066-.697 1.8 1.8 0 0 0-.22-.598 1.14 1.14 0 0 0-.425-.424q-.263-.155-.668-.155-.315 0-.575.108-.254.105-.438.32a1.6 1.6 0 0 0-.287.546 2.7 2.7 0 0 0-.099.768l-.55-.17q0-.739.263-1.266.268-.533.749-.815.484-.287 1.14-.287.494 0 .842.155.348.156.58.415.23.254.362.574.132.316.183.645.057.326.057.617v2.812zm-3.626 0v-6.78h.754v3.743h.094v3.038zm7.902.142q-.748 0-1.309-.33a2.3 2.3 0 0 1-.866-.928q-.311-.598-.311-1.393 0-.834.306-1.441a2.24 2.24 0 0 1 .852-.942q.552-.334 1.29-.334.768 0 1.305.353.541.353.81 1.007.273.655.235 1.56h-.847v-.302q-.015-.937-.382-1.399-.367-.466-1.092-.466-.777 0-1.182.5-.405.499-.405 1.43 0 .9.405 1.395t1.153.494q.504 0 .876-.23.372-.232.584-.665l.806.278a2.3 2.3 0 0 1-.895 1.046 2.5 2.5 0 0 1-1.333.367m-1.879-2.449v-.673h3.758v.673zm5.24 2.307v-5.085h.748v1.229l-.122-.16a2 2 0 0 1 .231-.434q.145-.197.325-.324a1.4 1.4 0 0 1 .447-.245q.25-.085.509-.1.258-.017.485.034v.786a1.6 1.6 0 0 0-.58-.037q-.315.032-.584.23-.244.175-.381.424a1.9 1.9 0 0 0-.184.542 3.4 3.4 0 0 0-.051.588v2.553h-.843zm5.625.142q-.749 0-1.309-.33a2.3 2.3 0 0 1-.867-.928q-.31-.598-.31-1.393 0-.834.306-1.441a2.24 2.24 0 0 1 .852-.942q.55-.334 1.29-.334.768 0 1.305.353.541.353.81 1.007.273.655.235 1.56h-.848v-.302q-.014-.937-.381-1.399-.368-.466-1.092-.466-.777 0-1.182.5-.405.499-.405 1.43 0 .9.405 1.395t1.153.494q.504 0 .876-.23.372-.232.584-.665l.805.278a2.28 2.28 0 0 1-.894 1.046 2.5 2.5 0 0 1-1.333.367m-1.879-2.449v-.673h3.758v.673zm8.571 2.449q-.57 0-.956-.207a1.5 1.5 0 0 1-.58-.556 1.5 1.5 0 0 1-.193-.754 1.5 1.5 0 0 1 .151-.692q.156-.295.433-.49.279-.197.664-.31.363-.1.81-.17.453-.075.914-.136t.862-.118l-.302.174q.015-.678-.273-1.003-.282-.325-.979-.325-.462 0-.81.212-.344.207-.485.678l-.796-.24q.183-.669.711-1.05.527-.381 1.389-.381.692 0 1.187.25.498.243.715.743.109.236.137.513.028.274.028.575v3.145h-.744v-1.22l.174.114q-.286.617-.805.932-.513.316-1.252.316m.127-.702q.452 0 .781-.16a1.4 1.4 0 0 0 .801-1.013 2 2 0 0 0 .075-.522q.01-.292.01-.448l.292.128-.806.108a18 18 0 0 0-.748.113 6 6 0 0 0-.636.137q-.207.066-.391.17a.9.9 0 0 0-.292.267.7.7 0 0 0-.108.4.8.8 0 0 0 .104.396.8.8 0 0 0 .329.306q.226.118.589.118m3.725.56v-5.085h.748v1.229l-.122-.16a2 2 0 0 1 .231-.434q.145-.197.325-.324.197-.16.447-.245t.509-.1q.258-.017.485.034v.786a1.6 1.6 0 0 0-.58-.037q-.315.032-.584.23-.245.175-.381.424a1.9 1.9 0 0 0-.184.542 3.4 3.4 0 0 0-.051.588v2.553h-.843zm5.625.142q-.749 0-1.309-.33a2.3 2.3 0 0 1-.867-.928q-.31-.598-.311-1.393 0-.834.307-1.441a2.24 2.24 0 0 1 .852-.942q.55-.334 1.29-.334.768 0 1.305.353.541.353.81 1.007.273.655.235 1.56h-.848v-.302q-.013-.937-.381-1.399-.367-.466-1.093-.466-.777 0-1.182.5-.404.499-.404 1.43 0 .9.404 1.395.405.495 1.154.494.504 0 .876-.23.372-.232.584-.665l.805.278a2.3 2.3 0 0 1-.894 1.046 2.5 2.5 0 0 1-1.333.367m-1.879-2.449v-.673h3.758v.673zm10.746 2.307v-2.547q0-.363-.066-.697a1.8 1.8 0 0 0-.221-.598 1.15 1.15 0 0 0-.424-.424q-.264-.155-.669-.155-.315 0-.574.108a1.1 1.1 0 0 0-.438.32 1.6 1.6 0 0 0-.287.546 2.7 2.7 0 0 0-.099.768l-.551-.17q0-.739.264-1.266.267-.533.748-.815.486-.287 1.14-.287.494 0 .843.155.348.156.579.415.231.254.363.574.132.316.183.645.057.326.057.617v2.812zm-3.626 0v-5.085h.754v1.36h.094v3.725zm7.818.142q-.758 0-1.309-.344a2.3 2.3 0 0 1-.843-.951q-.297-.608-.296-1.394 0-.801.301-1.403.302-.603.852-.937.552-.34 1.295-.34.764 0 1.314.344.55.34.843.947.297.603.297 1.389 0 .795-.297 1.403a2.27 2.27 0 0 1-.848.947q-.55.339-1.309.339m0-.796q.792 0 1.177-.527.387-.528.387-1.366 0-.862-.391-1.37-.391-.514-1.173-.514-.532 0-.876.24t-.513.664a2.6 2.6 0 0 0-.169.98q0 .857.395 1.375c.395.518.652.518 1.163.518m7.112.654v-2.547q0-.363-.066-.697a1.8 1.8 0 0 0-.222-.598 1.14 1.14 0 0 0-.423-.424q-.264-.155-.669-.155-.315 0-.575.108a1.1 1.1 0 0 0-.438.32 1.6 1.6 0 0 0-.287.546 2.7 2.7 0 0 0-.099.768l-.551-.17q0-.739.264-1.266.269-.533.749-.815.485-.287 1.139-.287.495 0 .843.155.35.156.58.415.23.254.362.574.132.316.184.645.056.326.056.617v2.812zm-3.626 0v-5.085h.753v1.36h.094v3.725zm7.855.142q-.748 0-1.309-.33a2.3 2.3 0 0 1-.866-.928q-.31-.598-.311-1.393 0-.834.306-1.441a2.24 2.24 0 0 1 .852-.942q.552-.334 1.291-.334.767 0 1.304.353.541.353.81 1.007.273.655.236 1.56h-.848v-.302q-.014-.937-.381-1.399-.368-.466-1.093-.466-.777 0-1.182.5-.405.499-.405 1.43 0 .9.405 1.395t1.154.494q.504 0 .876-.23.371-.232.584-.665l.805.278a2.3 2.3 0 0 1-.895 1.046 2.5 2.5 0 0 1-1.333.367m-1.878-2.449v-.673h3.757v.673zm7.219 2.307V54.32h.838v6.922zm4.455.142q-.75 0-1.31-.33a2.3 2.3 0 0 1-.866-.928q-.31-.598-.311-1.393 0-.834.306-1.441.306-.613.853-.942.55-.334 1.29-.334.767 0 1.304.353.542.353.81 1.007.273.655.236 1.56h-.848v-.302q-.013-.937-.381-1.399-.367-.466-1.093-.466-.777 0-1.182.5-.405.499-.405 1.43 0 .9.405 1.395t1.154.494q.504 0 .876-.23.371-.232.584-.665l.805.278a2.3 2.3 0 0 1-.895 1.046q-.593.366-1.332.367m-1.879-2.449v-.673h3.758v.673zm5.724 2.307V55.88q0-.198.019-.4.02-.208.085-.4.066-.198.216-.363.175-.194.382-.273.207-.085.419-.104a5 5 0 0 1 .41-.019h.645v.697h-.598q-.372 0-.556.184-.183.18-.184.546v5.495h-.838zm-.862-4.393v-.692h3.038v.692zm6.629 4.393q-.452.09-.895.071a2 2 0 0 1-.782-.174 1.12 1.12 0 0 1-.522-.509 1.5 1.5 0 0 1-.165-.607 25 25 0 0 1-.009-.702v-4.577h.838v4.54q0 .31.004.532.01.22.099.381a.69.69 0 0 0 .537.353q.372.052.895-.028zm-3.405-4.393v-.692h3.405v.692zM21.728 45.043q-1.573 0-2.684-.697a4.64 4.64 0 0 1-1.705-1.92q-.585-1.215-.593-2.75.009-1.564.612-2.77a4.6 4.6 0 0 1 1.733-1.902q1.121-.697 2.665-.697 1.733 0 2.93.876 1.204.865 1.572 2.373l-2.26.612q-.264-.82-.876-1.271a2.26 2.26 0 0 0-1.394-.462q-.885 0-1.46.424-.574.414-.848 1.15-.273.733-.273 1.666 0 1.45.65 2.345t1.931.895q.905 0 1.422-.414.527-.415.791-1.197l2.317.518q-.47 1.554-1.648 2.393-1.178.828-2.882.828m6.417-.283V34.59h2.006v2.476l-.244-.32q.187-.509.499-.923a2.8 2.8 0 0 1 .763-.697q.376-.255.828-.395.462-.15.942-.18.48-.036.933.038v2.12a2.9 2.9 0 0 0-1.046-.085q-.584.046-1.055.33a2.4 2.4 0 0 0-.772.65 2.7 2.7 0 0 0-.433.903 4 4 0 0 0-.142 1.083v5.17zm11.832.283q-1.525 0-2.665-.687a4.7 4.7 0 0 1-1.77-1.893q-.622-1.215-.622-2.788 0-1.601.64-2.806a4.7 4.7 0 0 1 1.78-1.884q1.14-.678 2.637-.678 1.535 0 2.675.687a4.7 4.7 0 0 1 1.77 1.903q.632 1.205.632 2.778 0 1.582-.64 2.797a4.7 4.7 0 0 1-1.771 1.893q-1.14.678-2.666.678m0-2.128q1.356 0 2.016-.904.66-.905.659-2.336 0-1.478-.669-2.354-.668-.886-2.006-.886-.913 0-1.507.415-.584.405-.866 1.14-.282.725-.283 1.685 0 1.479.669 2.364.678.876 1.987.876m10.84 2.128q-1.884 0-3.061-.847-1.177-.848-1.431-2.383l2.316-.358q.18.754.791 1.187.612.433 1.545.433.82 0 1.262-.32a1.05 1.05 0 0 0 .452-.895q0-.348-.17-.556-.16-.216-.715-.414c-.555-.198-.939-.298-1.705-.5q-1.281-.338-2.034-.724-.754-.396-1.083-.933-.33-.536-.33-1.3 0-.95.5-1.657.499-.706 1.393-1.083.895-.386 2.11-.386 1.186 0 2.1.367.922.367 1.488 1.045.566.679.697 1.592l-2.317.415a1.46 1.46 0 0 0-.593-1.027q-.5-.376-1.338-.424-.8-.047-1.29.245-.49.282-.49.8 0 .293.198.5c.198.207.396.276.791.414q.603.207 1.79.509 1.215.31 1.94.715.735.396 1.055.952.33.556.33 1.347 0 1.535-1.121 2.41-1.112.876-3.08.876m10.191 0q-1.885 0-3.061-.847-1.177-.848-1.432-2.383l2.317-.358q.18.754.791 1.187.612.433 1.545.433.82 0 1.262-.32a1.05 1.05 0 0 0 .452-.895q0-.348-.17-.556-.16-.216-.716-.414t-1.704-.5q-1.28-.338-2.035-.724-.753-.396-1.083-.933-.33-.536-.33-1.3 0-.95.5-1.657.499-.706 1.394-1.083.894-.386 2.11-.386 1.185 0 2.1.367.923.367 1.488 1.045.564.679.697 1.592l-2.317.415a1.46 1.46 0 0 0-.594-1.027q-.498-.376-1.337-.424-.801-.047-1.29.245-.49.282-.49.8 0 .293.198.5c.198.207.395.276.791.414q.602.207 1.79.509 1.215.31 1.94.715.734.396 1.054.952.33.556.33 1.347 0 1.535-1.12 2.41-1.112.876-3.08.876m8.062-.283-3.11-10.19 2.223.02 1.987 6.526 2.015-6.527h1.912l2.006 6.527 1.997-6.527h2.223l-3.108 10.172h-1.77l-2.308-6.998-2.298 6.998zm15.227.283q-1.101 0-1.864-.414a2.93 2.93 0 0 1-1.159-1.12 3.1 3.1 0 0 1-.386-1.536q0-.736.245-1.318a2.6 2.6 0 0 1 .753-1.017q.51-.434 1.319-.707.612-.198 1.431-.358a34 34 0 0 1 1.79-.292q.97-.14 2.025-.301l-.81.461q.01-1.054-.471-1.554-.48-.498-1.62-.499-.687 0-1.328.32-.64.32-.895 1.102l-2.072-.65a3.85 3.85 0 0 1 1.432-2.071q1.065-.782 2.863-.782 1.356 0 2.383.442 1.035.444 1.535 1.45.273.538.33 1.103.056.555.056 1.215v6.244h-1.987v-2.204l.33.358q-.689 1.102-1.611 1.62-.913.508-2.289.508m.453-1.808q.771 0 1.318-.273.546-.273.867-.669.33-.395.442-.744.18-.432.198-.989.028-.564.028-.913l.697.207q-1.026.16-1.761.283t-1.262.235a8 8 0 0 0-.933.236 3 3 0 0 0-.668.33q-.273.188-.424.432a1.13 1.13 0 0 0-.141.575q0 .376.188.669.189.282.546.452.368.17.904.17zm7.744 1.525V30.917h2.27v13.845h-2.27zm5.073 0 .018-13.561h2.298v8.288l3.72-4.898h2.835l-3.946 5.086 4.285 5.086h-3.004l-3.89-4.898v4.898zm13.897.283q-1.884 0-3.061-.847-1.177-.848-1.431-2.383l2.317-.358q.179.754.791 1.187t1.544.433q.82 0 1.262-.32.453-.33.452-.895 0-.348-.169-.556-.16-.216-.716-.414t-1.705-.5q-1.281-.338-2.034-.724-.753-.396-1.083-.933-.33-.536-.33-1.3 0-.95.5-1.657.499-.706 1.393-1.083.895-.386 2.11-.386 1.187 0 2.1.367.924.367 1.488 1.045.565.679.697 1.592l-2.317.415a1.46 1.46 0 0 0-.593-1.027q-.499-.376-1.337-.424-.8-.047-1.291.245-.489.282-.489.8a.7.7 0 0 0 .197.5q.198.207.792.414.602.207 1.789.509 1.215.31 1.94.715.735.396 1.055.952.33.556.33 1.347 0 1.535-1.121 2.41-1.112.876-3.08.876M19.058 24.889q-.72 0-1.3-.245a2.5 2.5 0 0 1-.951-.697 2.34 2.34 0 0 1-.485-1.078l.867-.137a1.7 1.7 0 0 0 .682 1.003q.523.358 1.23.358.456 0 .823-.141a1.4 1.4 0 0 0 .589-.415.98.98 0 0 0 .217-.636.9.9 0 0 0-.08-.386.8.8 0 0 0-.212-.277 1.3 1.3 0 0 0-.302-.198 2.3 2.3 0 0 0-.353-.132l-1.728-.513a4 4 0 0 1-.546-.212 2 2 0 0 1-.471-.325 1.5 1.5 0 0 1-.33-.471 1.6 1.6 0 0 1-.122-.655q0-.602.31-1.026a2 2 0 0 1 .853-.655 3.05 3.05 0 0 1 1.21-.221q.683.005 1.22.245.54.235.894.678.36.442.48 1.06l-.89.155a1.5 1.5 0 0 0-.315-.711 1.57 1.57 0 0 0-.602-.462 1.95 1.95 0 0 0-.796-.17 1.9 1.9 0 0 0-.75.133q-.334.136-.531.381a.85.85 0 0 0-.198.556q0 .31.179.504.18.188.438.3.264.11.513.18l1.29.372q.222.06.509.17.292.108.565.305.273.194.452.518.18.321.18.81t-.199.872a1.8 1.8 0 0 1-.541.64q-.348.255-.81.386a3.5 3.5 0 0 1-.99.137zm5.73 0q-.75 0-1.31-.33a2.3 2.3 0 0 1-.866-.928q-.31-.598-.31-1.393 0-.834.306-1.441.305-.613.852-.942.55-.335 1.29-.335.768 0 1.305.354.54.353.81 1.007.273.655.235 1.56h-.848v-.302q-.014-.937-.381-1.399-.368-.466-1.093-.466-.777 0-1.182.5-.405.498-.405 1.43 0 .9.405 1.395.405.494 1.154.494.504 0 .876-.23a1.57 1.57 0 0 0 .584-.665l.805.278a2.3 2.3 0 0 1-.895 1.045 2.5 2.5 0 0 1-1.332.368m-1.88-2.449v-.673h3.759v.673h-3.758zm5.334 2.307v-6.922h.839v6.922zm4.455.142q-.748 0-1.309-.33a2.3 2.3 0 0 1-.866-.928q-.31-.598-.31-1.393 0-.834.305-1.441a2.23 2.23 0 0 1 .852-.942q.552-.335 1.29-.335.769 0 1.305.354.541.353.81 1.007.273.655.236 1.56h-.848v-.302q-.015-.937-.381-1.399-.368-.466-1.093-.466-.777 0-1.182.5-.405.498-.405 1.43 0 .9.405 1.395.405.494 1.154.494.504 0 .876-.23a1.57 1.57 0 0 0 .584-.665l.805.278a2.3 2.3 0 0 1-.895 1.045 2.5 2.5 0 0 1-1.333.368m-1.879-2.449v-.673h3.758v.673zm7.382 2.449q-.771 0-1.313-.344a2.24 2.24 0 0 1-.82-.956 3.35 3.35 0 0 1-.291-1.384q.01-.796.296-1.399.293-.607.834-.947t1.304-.339q.805 0 1.384.396.585.396.782 1.083l-.829.25a1.36 1.36 0 0 0-.522-.688 1.42 1.42 0 0 0-.824-.245q-.523 0-.862.245-.339.24-.504.669-.164.423-.17.975.01.848.391 1.37.387.518 1.145.518.499 0 .828-.226a1.4 1.4 0 0 0 .5-.664l.847.221q-.264.711-.824 1.088t-1.351.377zm5.977-.142q-.452.09-.895.071a2 2 0 0 1-.782-.174 1.12 1.12 0 0 1-.522-.509 1.5 1.5 0 0 1-.165-.607 23 23 0 0 1-.01-.702V18.25h.839v4.54q0 .31.004.532.01.22.1.381a.69.69 0 0 0 .536.353q.372.052.895-.028v.72zm-3.405-4.393v-.692h3.405v.692zm7.768 4.535q-.57 0-.955-.207a1.5 1.5 0 0 1-.58-.556 1.5 1.5 0 0 1-.193-.754q0-.4.151-.692.156-.296.433-.49a2.2 2.2 0 0 1 .664-.31q.363-.1.81-.17.453-.076.914-.136l.861-.118-.3.174q.012-.678-.274-1.003-.282-.325-.98-.325-.46 0-.81.212-.343.207-.484.678l-.796-.24a1.86 1.86 0 0 1 .71-1.05q.528-.381 1.39-.382.692 0 1.187.25.498.245.715.744.108.235.137.513.028.273.028.575v3.145h-.744v-1.22l.174.114q-.287.617-.805.932-.514.316-1.252.316zm.128-.702q.452 0 .781-.16a1.4 1.4 0 0 0 .8-1.012 1.9 1.9 0 0 0 .076-.523q.01-.292.01-.448l.292.128-.806.108a17 17 0 0 0-.748.113 6 6 0 0 0-.636.136 2 2 0 0 0-.39.17.9.9 0 0 0-.293.268.7.7 0 0 0-.108.4q0 .208.103.396a.8.8 0 0 0 .33.306q.226.118.589.118m3.819.56v-6.922h.838v6.922zm2.345 0v-6.922h.838v6.922zm4.231-5.985v-.866h.838v.866zm0 5.985v-5.085h.838v5.085zm8.33 0 .005-3.253q0-.57-.306-.89-.301-.325-.787-.325a1.15 1.15 0 0 0-.536.131 1 1 0 0 0-.415.405q-.16.273-.16.702l-.443-.179a1.8 1.8 0 0 1 .222-.946q.235-.41.64-.636.405-.225.914-.226.796 0 1.252.485.457.48.457 1.295l-.005 3.438h-.838zm-6.084 0v-5.085h.749v1.36h.094v3.726zm3.047 0 .005-3.22q0-.584-.302-.914-.3-.334-.8-.334-.495 0-.8.339-.307.339-.307.9l-.443-.265a1.67 1.67 0 0 1 .876-1.497q.405-.226.919-.226.513 0 .894.216.382.217.589.622.207.4.207.956l-.005 3.423zm6.552.142q-.57 0-.956-.207a1.5 1.5 0 0 1-.579-.556 1.5 1.5 0 0 1-.193-.754q0-.4.15-.692a1.4 1.4 0 0 1 .434-.49q.278-.197.664-.31.363-.1.81-.17.453-.076.914-.136.46-.061.861-.118l-.301.174q.014-.678-.273-1.003-.282-.325-.98-.325-.46 0-.81.212-.343.207-.485.678l-.795-.24q.183-.669.71-1.05.528-.381 1.39-.382.692 0 1.187.25.498.245.715.744.109.235.137.513.028.273.028.575v3.145h-.744v-1.22l.174.114q-.287.617-.805.932-.513.316-1.253.316m.128-.702q.451 0 .781-.16a1.4 1.4 0 0 0 .8-1.012 1.9 1.9 0 0 0 .076-.523q.01-.292.01-.448l.291.128-.805.108a18 18 0 0 0-.748.113 6 6 0 0 0-.636.136 2 2 0 0 0-.391.17.9.9 0 0 0-.292.268.7.7 0 0 0-.108.4q0 .208.103.396a.8.8 0 0 0 .33.306q.225.118.589.118m5.782 2.963q-.4 0-.781-.123a2.3 2.3 0 0 1-.702-.372 2 2 0 0 1-.527-.622l.767-.405q.189.372.532.542.349.17.716.17.485 0 .805-.18.32-.174.471-.523.156-.348.15-.866v-1.39h.1v-3.72h.744v5.12q0 .207-.014.4a3 3 0 0 1-.047.381q-.1.542-.391.89a1.73 1.73 0 0 1-.754.523 3 3 0 0 1-1.069.174zm-.06-2.261q-.713 0-1.22-.353a2.35 2.35 0 0 1-.787-.966 3.3 3.3 0 0 1-.273-1.37q0-.763.273-1.37.278-.608.786-.956.51-.354 1.215-.354.72 0 1.21.349.49.348.74.956.255.607.254 1.375 0 .758-.254 1.37a2.2 2.2 0 0 1-.74.966q-.49.353-1.205.353zm.103-.768q.513 0 .843-.245a1.44 1.44 0 0 0 .485-.683q.16-.438.16-.993a2.9 2.9 0 0 0-.16-.994 1.4 1.4 0 0 0-.48-.673q-.325-.245-.825-.245-.517 0-.857.254-.335.255-.499.688-.16.433-.16.97 0 .54.165.98.165.432.494.687.334.254.834.254m5.75.768q-.748 0-1.309-.33a2.3 2.3 0 0 1-.866-.928q-.31-.598-.31-1.393 0-.834.305-1.441a2.24 2.24 0 0 1 .853-.942q.55-.335 1.29-.335.767 0 1.304.354.541.353.81 1.007.273.655.236 1.56h-.848v-.302q-.015-.937-.381-1.399-.368-.466-1.093-.466-.777 0-1.182.5-.405.498-.405 1.43 0 .9.405 1.395.405.494 1.154.494.504 0 .876-.23a1.57 1.57 0 0 0 .584-.665l.805.278a2.3 2.3 0 0 1-.895 1.045 2.5 2.5 0 0 1-1.333.368m-1.879-2.449v-.673h3.758v.673zm7.161 2.444q-.909 0-1.493-.396a1.67 1.67 0 0 1-.71-1.116l.856-.136q.105.414.476.66.372.24.923.24.523 0 .82-.217a.69.69 0 0 0 .296-.589.57.57 0 0 0-.099-.348q-.099-.137-.41-.255a10 10 0 0 0-.927-.282 6 6 0 0 1-1.06-.372q-.385-.193-.55-.448a1.1 1.1 0 0 1-.165-.616q0-.449.244-.782.246-.339.683-.523a2.7 2.7 0 0 1 1.027-.184q.579 0 1.036.184.457.183.734.523.283.334.335.782l-.857.155a.92.92 0 0 0-.396-.645q-.33-.235-.852-.25-.495-.018-.805.174-.306.194-.306.523a.47.47 0 0 0 .112.316q.118.13.429.25.315.117.914.268.673.17 1.06.372.39.197.555.47.165.269.165.665 0 .734-.542 1.158-.542.42-1.493.419m6.042-.137-1.554-5.09.833.005 1.135 3.72 1.144-3.72h.74l1.14 3.72 1.139-3.72h.829l-1.554 5.085h-.697l-1.23-3.866-1.228 3.866zm6.35-5.985v-.866h.838v.866zm0 5.985v-5.085h.838v5.085zm5.091 0q-.452.09-.895.071a2 2 0 0 1-.781-.174 1.12 1.12 0 0 1-.523-.509 1.5 1.5 0 0 1-.165-.607 25 25 0 0 1-.009-.702V18.25h.838v4.54q0 .31.005.532a.85.85 0 0 0 .098.381.69.69 0 0 0 .537.353q.372.052.895-.028v.72zm-3.405-4.393v-.692h3.405v.692zm8.059 4.393V22.2a3.6 3.6 0 0 0-.066-.697 1.8 1.8 0 0 0-.222-.598 1.14 1.14 0 0 0-.423-.424q-.264-.155-.669-.155-.315 0-.575.108-.254.104-.437.32a1.55 1.55 0 0 0-.288.546 2.7 2.7 0 0 0-.099.768l-.551-.17q0-.739.264-1.266.269-.533.749-.815.485-.287 1.139-.287.495 0 .843.155.35.156.58.415.23.254.362.574.132.315.184.645.057.325.056.617v2.811zm-3.626 0v-6.78h.753v3.743h.094v3.037z"/><path fill="#5e646e" fill-rule="evenodd" d="M52.229 331.965c-1.07 1.344-1.467 2.964-1.467 3.998v2.325H49.02v-2.325c0-1.388.505-3.401 1.846-5.085 1.371-1.72 3.584-3.053 6.872-3.053 3.29 0 5.502 1.333 6.873 3.053 1.341 1.684 1.846 3.697 1.846 5.085v2.325h-1.744v-2.325c0-1.034-.395-2.654-1.466-3.998-1.041-1.307-2.753-2.396-5.509-2.396s-4.467 1.089-5.508 2.396z" clip-rule="evenodd"/><path fill="#5e646e" d="M49.019 338.288h5.812v8.137h-3.487c-.775 0-2.325-.465-2.325-2.325zm17.437 0h-5.812v8.137h3.487c.775 0 2.325-.465 2.325-2.325z"/><path fill="#5e646e" fill-rule="evenodd" d="M93.194 344.681a7.556 7.556 0 1 0 0-15.112 7.556 7.556 0 0 0 0 15.112m0 1.744a9.3 9.3 0 1 0 0-18.6 9.3 9.3 0 0 0 0 18.6" clip-rule="evenodd"/><path fill="#5e646e" fill-rule="evenodd" d="M94.066 336.544v5.231h-1.744v-5.231h1.743zm0-4.069v1.744h-1.744v-1.744h1.743zM21.7 329.569a7.556 7.556 0 1 0 6.757 10.943l1.558.783a9.3 9.3 0 1 1 0-8.339l-1.558.782a7.56 7.56 0 0 0-6.757-4.169" clip-rule="evenodd"/><path fill="#5e646e" d="M30.71 334.8v-6.684l-6.395 6.684z"/><path fill="#fff" d="M62 211.112a3.855 3.855 0 0 1 3.855-3.855h240.29a3.855 3.855 0 0 1 3.855 3.855v53.969a3.855 3.855 0 0 1-3.855 3.855H65.855A3.855 3.855 0 0 1 62 265.081z"/><path fill="#d1d8e4" fill-rule="evenodd" d="M306.145 208.542H65.855a2.57 2.57 0 0 0-2.57 2.57v53.969a2.57 2.57 0 0 0 2.57 2.57h240.29a2.57 2.57 0 0 0 2.57-2.57v-53.969a2.57 2.57 0 0 0-2.57-2.57m-240.29-1.285A3.855 3.855 0 0 0 62 211.112v53.969a3.855 3.855 0 0 0 3.855 3.855h240.29a3.855 3.855 0 0 0 3.855-3.855v-53.969a3.855 3.855 0 0 0-3.855-3.855z" clip-rule="evenodd"/><path fill="#a2a8b4" d="M268.198 230.402h-10.881v10.974l2.883-2.852c1.065 1.529 4.539 4.612 9.92 4.711s9.124-3.368 10.323-5.114l-4.743-4.681c-.558.992-2.263 3.255-5.58 3.286-2.654.024-4.619-1.974-5.27-2.976z"/><path fill="#3c7eef" d="M258.557 224.76c-1.041 1.959-1.26 4.577-1.24 5.642h6.51c-.01-.455.13-1.674.775-2.914s1.716-2.046 2.17-2.294l3.348 3.286v-10.943h-10.943l2.852 2.883c-.723.63-2.43 2.381-3.472 4.34"/><path fill="#19349f" d="M275.793 218.809c-1.959-1.042-4.578-1.261-5.642-1.24v6.509c.455-.01 1.674.131 2.914.775 1.24.645 2.046 1.716 2.294 2.17l-3.286 3.348h10.943v-10.942l-2.883 2.852c-.631-.724-2.381-2.431-4.34-3.472"/><path fill="#a2a8b4" d="M242.189 258.656v-5.551h.817v1.342l-.133-.175a2 2 0 0 1 .252-.473 1.6 1.6 0 0 1 .354-.355 1.6 1.6 0 0 1 .489-.267q.272-.093.555-.108a1.8 1.8 0 0 1 .529.036v.859a1.7 1.7 0 0 0-.632-.042 1.3 1.3 0 0 0-.637.252 1.4 1.4 0 0 0-.417.463 2 2 0 0 0-.2.591 3.6 3.6 0 0 0-.057.642v2.786zm6.14.154q-.817 0-1.429-.359a2.5 2.5 0 0 1-.945-1.013q-.34-.652-.34-1.521 0-.91.334-1.573.334-.668.931-1.028.601-.365 1.408-.365.838 0 1.424.385.591.386.884 1.1.298.715.257 1.702h-.925v-.329q-.016-1.023-.417-1.527-.4-.509-1.192-.509-.849 0-1.29.545-.442.544-.442 1.563 0 .981.442 1.521.441.54 1.259.54.55 0 .956-.252t.637-.725l.879.303q-.324.735-.976 1.142-.648.4-1.455.4m-2.051-2.672v-.735h4.102v.735zm8.762 2.672q-1.105 0-1.876-.488a3.14 3.14 0 0 1-1.177-1.357q-.4-.869-.401-2.009 0-1.142.401-2.01a3.14 3.14 0 0 1 1.177-1.357q.77-.488 1.876-.488 1.286 0 2.112.652.834.653 1.147 1.758l-.931.247q-.225-.828-.807-1.306-.58-.478-1.521-.478-.828 0-1.377.376-.55.375-.828 1.048-.277.669-.283 1.558-.004.883.273 1.557.277.668.832 1.048.555.376 1.383.376.94 0 1.521-.478.582-.484.807-1.306l.931.247q-.313 1.1-1.147 1.758-.826.652-2.112.652m3.671-.154 2.478-7.401h1.274l2.478 7.401h-.951l-2.318-6.867h.288l-2.298 6.867zm1.193-1.732v-.858h3.844v.858zm5.957 1.732v-7.401h2.924q.108 0 .257.01.15.005.288.031.602.093 1.008.411.41.32.616.807a2.7 2.7 0 0 1 .206 1.074q0 .586-.211 1.075a2 2 0 0 1-.616.806q-.406.32-1.003.412a4 4 0 0 1-.545.041h-2.009v2.734zm.915-3.603h1.979q.097 0 .221-.01.128-.01.241-.036.356-.082.576-.298.226-.222.329-.514a1.82 1.82 0 0 0 0-1.208 1.3 1.3 0 0 0-.329-.519 1.12 1.12 0 0 0-.576-.298 1 1 0 0 0-.241-.036 3 3 0 0 0-.221-.011h-1.979zm7.316 3.603v-6.533h-2.523v-.868h5.962v.868h-2.524v6.533zm7.3.154q-1.105 0-1.876-.488a3.14 3.14 0 0 1-1.177-1.357q-.4-.869-.401-2.009 0-1.142.401-2.01a3.14 3.14 0 0 1 1.177-1.357q.77-.488 1.876-.488 1.285 0 2.113.652.832.653 1.146 1.758l-.931.247q-.225-.828-.807-1.306-.58-.478-1.521-.478-.828 0-1.377.376-.55.375-.828 1.048-.277.669-.283 1.558-.005.883.273 1.557.277.668.832 1.048.555.376 1.383.376.94 0 1.521-.478.582-.484.807-1.306l.931.247q-.314 1.1-1.146 1.758-.828.652-2.113.652m4.386-.154v-7.401h.915v3.264h3.896v-3.264h.915v7.401h-.915v-3.269h-3.896v3.269zm6.654 0 2.477-7.401h1.275l2.477 7.401h-.951l-2.318-6.867h.288l-2.297 6.867zm1.192-1.732v-.858h3.845v.858z"/><path fill="#5e646f" d="M110.469 243.236v-8.326h1.03v8.326zm2.822-5.724.064-.48q.243.017.364-.093a.5.5 0 0 0 .156-.3q.034-.191.012-.423h-.596v-1.306h1.134v1.48q0 .607-.301.914-.295.306-.833.208m10.208 5.724.006-3.995q0-.7-.376-1.093-.37-.399-.965-.399-.347 0-.66.162-.312.156-.508.497-.197.336-.197.862l-.544-.22q-.011-.665.272-1.162.29-.504.787-.781a2.26 2.26 0 0 1 1.121-.278q.978 0 1.539.596.56.59.56 1.59l-.005 4.221zm-7.47 0v-6.245h.919v1.671h.116v4.574zm3.741 0 .006-3.955q0-.717-.371-1.122-.37-.41-.983-.41-.606 0-.983.416-.375.417-.375 1.105l-.544-.324q0-.607.289-1.087.29-.48.787-.752a2.3 2.3 0 0 1 1.127-.278q.63 0 1.099.266.468.267.723.764.254.491.254 1.174l-.006 4.203zm13.032 0v-3.128q0-.445-.081-.856a2.2 2.2 0 0 0-.271-.734 1.4 1.4 0 0 0-.521-.521q-.324-.19-.821-.19-.387 0-.705.133a1.4 1.4 0 0 0-.538.393q-.225.266-.353.671a3.3 3.3 0 0 0-.121.942l-.677-.208q0-.908.324-1.556.33-.653.919-1 .597-.353 1.4-.353.608 0 1.035.191.427.19.711.509.283.312.445.706.162.387.226.792.069.399.069.757v3.452zm-4.452 0v-6.245h.925v1.671h.116v4.574zm9.6.174q-.931 0-1.607-.422a2.8 2.8 0 0 1-1.036-1.168q-.363-.746-.364-1.712 0-.983.37-1.723a2.76 2.76 0 0 1 1.047-1.151q.677-.416 1.59-.416.937 0 1.613.422.676.417 1.035 1.162.365.74.365 1.706 0 .978-.365 1.723a2.8 2.8 0 0 1-1.04 1.162q-.677.417-1.608.417m0-.977q.972 0 1.446-.648t.474-1.677q0-1.058-.48-1.683-.48-.63-1.44-.63-.654 0-1.076.295a1.77 1.77 0 0 0-.63.815 3.2 3.2 0 0 0-.208 1.203q0 1.053.486 1.688.486.637 1.428.637m7.773.803a4.6 4.6 0 0 1-1.099.087 2.4 2.4 0 0 1-.96-.214 1.4 1.4 0 0 1-.642-.624 1.85 1.85 0 0 1-.202-.746 28 28 0 0 1-.012-.862v-5.62h1.029v5.574q0 .381.006.653.012.272.122.469.207.37.659.433.457.064 1.099-.034zm-4.181-5.395v-.85h4.181v.85zm9.539 5.569q-.7 0-1.174-.255a1.8 1.8 0 0 1-.711-.682 1.86 1.86 0 0 1-.237-.925q0-.492.185-.85.19-.364.532-.602.34-.242.815-.381.445-.122.995-.208.555-.093 1.121-.168.567-.075 1.059-.145l-.371.214q.018-.832-.335-1.231-.346-.399-1.203-.399a1.87 1.87 0 0 0-.994.26q-.423.254-.596.833l-.977-.295q.225-.822.873-1.29t1.706-.468q.85 0 1.457.306.613.301.879.914.133.29.168.63.034.336.034.706v3.862h-.913v-1.497l.214.138q-.353.758-.989 1.145-.63.388-1.538.388m.156-.862q.555 0 .96-.196.41-.203.659-.527.249-.328.324-.717.086-.288.092-.641.012-.359.012-.55l.358.156q-.503.07-.988.133-.486.064-.92.139a7 7 0 0 0-.78.168q-.255.08-.48.208a1.1 1.1 0 0 0-.359.33.85.85 0 0 0-.133.491q0 .255.127.486a1 1 0 0 0 .405.376q.277.144.723.144m6.889.688v-6.245h.919v1.51l-.15-.197q.11-.29.283-.532.18-.243.399-.399a1.8 1.8 0 0 1 .55-.301q.306-.104.624-.121.318-.024.596.04v.966a2 2 0 0 0-.711-.046 1.44 1.44 0 0 0-.717.283 1.55 1.55 0 0 0-.469.52 2.3 2.3 0 0 0-.225.665 4 4 0 0 0-.064.723v3.134zm6.861.174q-.93 0-1.607-.422a2.8 2.8 0 0 1-1.035-1.168q-.365-.746-.365-1.712 0-.983.37-1.723a2.76 2.76 0 0 1 1.047-1.151q.676-.416 1.59-.416.937 0 1.613.422.677.417 1.036 1.162.363.74.364 1.706 0 .978-.364 1.723-.364.74-1.041 1.162-.677.417-1.608.417m0-.977q.972 0 1.446-.648t.474-1.677q0-1.058-.48-1.683-.48-.63-1.44-.63-.653 0-1.075.295a1.77 1.77 0 0 0-.631.815 3.2 3.2 0 0 0-.208 1.203q0 1.053.486 1.688.486.637 1.428.637m7.154.977q-.879 0-1.48-.434a2.74 2.74 0 0 1-.914-1.185 4.4 4.4 0 0 1-.306-1.683q0-.942.306-1.688.312-.747.914-1.174.606-.428 1.486-.428.867 0 1.492.434.63.427.965 1.173.336.747.336 1.683 0 .937-.336 1.683a2.8 2.8 0 0 1-.965 1.185q-.625.434-1.498.434m-2.874-.174v-8.326h1.035v3.729h-.115v4.597zm2.747-.769q.618 0 1.023-.312t.607-.844q.203-.538.203-1.203 0-.658-.203-1.191a1.8 1.8 0 0 0-.613-.844q-.41-.313-1.046-.313-.607 0-1.006.301a1.75 1.75 0 0 0-.596.827 3.5 3.5 0 0 0-.196 1.22q0 .683.19 1.22.197.532.602.839.405.3 1.035.3m6.853.943q-.93 0-1.607-.422a2.8 2.8 0 0 1-1.035-1.168q-.365-.746-.365-1.712 0-.983.37-1.723a2.76 2.76 0 0 1 1.047-1.151q.676-.416 1.59-.416.937 0 1.613.422.676.417 1.035 1.162.365.74.365 1.706 0 .978-.365 1.723a2.8 2.8 0 0 1-1.04 1.162q-.677.417-1.608.417m0-.977q.972 0 1.446-.648t.474-1.677q0-1.058-.48-1.683-.48-.63-1.44-.63-.653 0-1.075.295a1.77 1.77 0 0 0-.631.815 3.2 3.2 0 0 0-.208 1.203q0 1.053.486 1.688.486.637 1.428.637m7.773.803q-.555.11-1.099.087a2.5 2.5 0 0 1-.96-.214 1.4 1.4 0 0 1-.642-.624 1.85 1.85 0 0 1-.202-.746 28 28 0 0 1-.012-.862v-5.62h1.03v5.574q0 .381.005.653.012.272.122.469a.85.85 0 0 0 .659.433q.457.064 1.099-.034zm-4.181-5.395v-.85h4.181v.85z"/><path fill="#178d5d" fill-rule="evenodd" d="m100.815 230.653-15.043 15.043-6.69-6.691 1.816-1.817 4.874 4.874 13.226-13.227z" clip-rule="evenodd"/></svg>