<svg xmlns="http://www.w3.org/2000/svg" width="330" height="220" fill="none"><rect width="330" height="220" fill="#ECFAFC" rx="10"/><rect width="320" height="210" x="5" y="5" fill="#fff" rx="5"/><rect width="300" height="20" x="15" y="164" fill="#ECFAFC" rx="5"/><rect width="300" height="104" x="15" y="28" fill="#ECFAFC" rx="5"/><rect width="40" height="40" x="68" y="154" fill="#BFE6EC" rx="5"/><path fill="#fff" fill-rule="evenodd" d="M76.636 164.24a1.43 1.43 0 0 1 1.981.396l5.715 8.572c.32.479.32 1.105 0 1.584l-5.715 8.572a1.429 1.429 0 0 1-2.377-1.585L81.426 174l-5.186-7.779a1.43 1.43 0 0 1 .396-1.981" clip-rule="evenodd"/><path fill="#fff" fill-rule="evenodd" d="M84.636 164.24a1.43 1.43 0 0 1 1.981.396l5.715 8.572c.32.479.32 1.105 0 1.584l-5.715 8.572a1.429 1.429 0 0 1-2.377-1.585L89.426 174l-5.186-7.779a1.43 1.43 0 0 1 .396-1.981" clip-rule="evenodd"/><path fill="#fff" fill-rule="evenodd" d="M92.636 164.24a1.43 1.43 0 0 1 1.981.396l5.715 8.572c.32.479.32 1.105 0 1.584l-5.715 8.572a1.429 1.429 0 0 1-2.377-1.585L97.426 174l-5.186-7.779a1.43 1.43 0 0 1 .396-1.981" clip-rule="evenodd"/><path fill="#BFE6EC" d="M169.366 58.298c-.274 1.244-1.282 2.29-2.556 2.29h-9.502A2.31 2.31 0 0 0 155 62.896v9.502c0 1.275 1.046 2.282 2.29 2.556 4.748 1.047 8.298 5.279 8.298 10.34s-3.55 9.293-8.298 10.34c-1.244.274-2.29 1.281-2.29 2.556v9.502a2.31 2.31 0 0 0 2.308 2.308h9.502c1.274 0 2.282-1.046 2.556-2.29 1.046-4.747 5.277-8.298 10.34-8.298a10.56 10.56 0 0 1 7.493 3.105 10.57 10.57 0 0 1 2.847 5.193c.275 1.245 1.281 2.29 2.556 2.29h9.502a2.31 2.31 0 0 0 2.308-2.308V98.19c0-1.275 1.046-2.282 2.29-2.556 4.748-1.047 8.298-5.279 8.298-10.34s-3.55-9.293-8.298-10.34c-1.244-.274-2.29-1.281-2.29-2.556v-9.502a2.31 2.31 0 0 0-2.308-2.308h-9.502c-1.275 0-2.282-1.046-2.556-2.29-1.047-4.747-5.278-8.298-10.34-8.298s-9.294 3.551-10.34 8.298"/><path fill="#14C384" d="M79.366 58.298c-.274 1.244-1.281 2.29-2.556 2.29h-9.502A2.31 2.31 0 0 0 65 62.896v9.502c0 1.275 1.046 2.282 2.29 2.556 4.748 1.047 8.298 5.279 8.298 10.34s-3.55 9.293-8.298 10.34c-1.244.274-2.29 1.281-2.29 2.556v9.502A2.31 2.31 0 0 0 67.308 110h9.502c1.275 0 2.282-1.046 2.556-2.29 1.046-4.747 5.278-8.298 10.34-8.298a10.56 10.56 0 0 1 7.493 3.105 10.57 10.57 0 0 1 2.847 5.193c.275 1.245 1.281 2.29 2.556 2.29h9.502a2.31 2.31 0 0 0 2.308-2.308V98.19c0-1.275 1.046-2.282 2.29-2.556 4.748-1.047 8.298-5.279 8.298-10.34s-3.55-9.293-8.298-10.34c-1.244-.274-2.29-1.281-2.29-2.556v-9.502a2.31 2.31 0 0 0-2.308-2.308h-9.502c-1.275 0-2.282-1.046-2.556-2.29C98.999 53.55 94.768 50 89.706 50s-9.294 3.551-10.34 8.298"/><path fill="#fff" d="M92.665 184.097c1.347.703 5.554 3.451 7.324 4.299.122-5.029 0-16.197 0-17.134 0-1.172.824-2.38 2.6-2.362s2.398 1.41 2.398 2.362v9.625c.006-.686.519-2.008 2.545-2.008 2.051 0 2.557 2.002 2.545 3.039 0 0 .275-1.391 2.527-1.391 1.992 0 2.472 1.763 2.453 2.636.068-.427.619-1.34 2.216-1.355 1.996-.018 2.582 1.483 2.6 2.82s.036 9.374 0 12.597c-.037 3.222-3.168 5.859-5.823 5.859-2.654 0-6.792.037-10.143 0s-5.621-2.801-7.287-5.255-4.175-6.774-6.024-9.649.384-4.962 2.069-4.083"/><path fill="#7E8DAE" fill-rule="evenodd" d="M99.974 169.012c.619-.646 1.518-1.023 2.624-1.012 1.152.012 2.008.483 2.557 1.167a3.4 3.4 0 0 1 .732 2.095v7.023c.46-.195 1.007-.306 1.646-.306 1.383 0 2.295.704 2.816 1.564q.149.248.258.507c.506-.257 1.161-.423 1.997-.423 1.314 0 2.206.605 2.73 1.392q.096.145.176.295c.459-.241 1.04-.399 1.755-.406 1.258-.011 2.188.473 2.774 1.268.551.747.723 1.667.734 2.44.018 1.344.037 9.389 0 12.619-.022 1.905-.954 3.589-2.21 4.781-1.247 1.183-2.905 1.968-4.512 1.968-.81 0-1.763.003-2.791.007-2.324.008-5.035.018-7.362-.007-3.868-.043-6.376-3.226-8.022-5.649-.954-1.405-2.211-3.465-3.45-5.494a223 223 0 0 0-2.586-4.174c-1.073-1.668-1.066-3.312-.272-4.451.766-1.098 2.225-1.589 3.514-.917.594.311 1.697.986 2.872 1.706l.684.419c.872.533 1.742 1.059 2.478 1.481.06-4.38.006-11.273-.017-14.255-.006-.723-.01-1.217-.01-1.388 0-.79.278-1.617.885-2.25m10.98 13.112a.9.9 0 0 1-1.776-.216c.005-.401-.097-.983-.369-1.433-.242-.4-.609-.696-1.276-.696-.802 0-1.181.252-1.368.455a1.06 1.06 0 0 0-.278.657v.02a.9.9 0 0 1-1.799.008v-9.657c0-.303-.104-.681-.335-.967-.205-.255-.549-.489-1.173-.495-.67-.007-1.071.211-1.307.458-.25.259-.384.623-.384 1.004 0 .158.004.627.009 1.321.026 3.297.092 11.668-.009 15.835a.9.9 0 0 1-1.289.79c-.935-.449-2.474-1.376-3.9-2.248l-.706-.432c-1.181-.724-2.21-1.355-2.745-1.633-.395-.207-.896-.093-1.205.351-.282.404-.467 1.24.31 2.447a220 220 0 0 1 2.663 4.299c1.204 1.974 2.399 3.934 3.348 5.332 1.686 2.483 3.718 4.829 6.552 4.86 2.314.025 4.999.016 7.318.007 1.033-.003 1.993-.007 2.816-.007 1.048 0 2.282-.534 3.274-1.474.982-.933 1.634-2.178 1.648-3.495.037-3.216.019-11.246.001-12.575-.008-.564-.138-1.063-.383-1.396-.211-.286-.572-.543-1.309-.536-1.088.01-1.307.53-1.333.591q-.003.01-.002.004a.9.9 0 0 1-1.789-.159 2.1 2.1 0 0 0-.322-1.127c-.209-.314-.553-.591-1.232-.591-.924 0-1.316.278-1.473.435a.8.8 0 0 0-.177.263" clip-rule="evenodd"/><path fill="#7E8DAE" fill-rule="evenodd" d="M104.987 180.012a.9.9 0 0 1 .9.899v4.962a.9.9 0 0 1-1.8 0v-4.962a.9.9 0 0 1 .9-.899m5.091 1.006a.9.9 0 0 1 .9.899v4.505a.9.9 0 0 1-1.8 0v-4.505a.9.9 0 0 1 .9-.899m4.979 1.209a.9.9 0 0 1 .9.9v3.845a.9.9 0 0 1-1.799 0v-3.845a.9.9 0 0 1 .899-.9" clip-rule="evenodd"/></svg>